<svg width="171" height="170" viewBox="0 0 171 170" fill="none" xmlns="http://www.w3.org/2000/svg">
<g opacity="0.65" filter="url(#filter0_d_1_2131)">
<path fill-rule="evenodd" clip-rule="evenodd" d="M132.286 107.652C129.721 112.188 126.676 116.192 123.207 119.566C116.158 126.513 107.5 131.247 98.0595 133.456C91.4387 135.048 84.3776 135.349 77.4374 134.287C71.1998 133.363 64.9715 131.272 59.1598 127.985C58.3718 127.539 57.4852 127.038 56.753 126.493C55.6267 125.726 54.4019 124.903 53.2756 124.136C44.981 117.883 38.8259 109.456 35.405 100.103C34.1136 96.6393 33.1865 92.9913 32.568 89.2575C32.15 86.5483 31.9422 83.6976 31.9871 80.8597C31.9704 80.1995 32.0095 79.4407 31.9929 78.7805C32.032 78.0217 32.0153 77.3616 32.1529 76.6585C32.3688 74.4379 32.7389 72.1743 33.2075 69.9665C33.5942 68.3631 33.981 66.7597 34.4663 65.2121C34.827 64.1146 35.1877 63.0171 35.7026 61.8767C36.6341 59.5402 37.664 57.2594 38.9467 54.9914C39.6718 53.7095 40.3968 52.4276 41.3188 51.2571C41.8635 50.5239 42.3096 49.735 42.9528 49.0576C46.165 44.7573 49.8995 41.1427 54.0577 38.1583C56.0596 36.6876 58.2586 35.3282 60.4445 34.2218C64.1435 32.2792 68.0264 30.7009 72.136 29.6413C85.1378 26.1923 99.5071 27.6815 112.116 34.8126C112.608 35.0912 113.101 35.3697 113.593 35.6483C114.086 35.9268 114.677 36.2611 115.114 36.6383C117.662 38.3397 120.098 40.2383 122.226 42.2228C123.481 43.4529 124.735 44.683 125.835 45.956C126.653 46.8089 127.316 47.7048 128.078 48.6563C128.601 49.3421 129.123 50.0279 129.645 50.7138C129.688 50.8681 129.786 50.9238 129.928 51.1338C133.232 55.8659 135.696 61.1641 137.234 66.7196C137.448 67.4912 137.662 68.2628 137.875 69.0344C137.948 69.5959 138.174 70.1146 138.247 70.6762C138.503 71.6021 138.605 72.5709 138.763 73.4411C139.296 76.8662 139.422 80.3214 139.296 83.7638C139.087 87.8107 138.471 91.8876 137.406 95.8403C136.088 99.7802 134.461 103.806 132.286 107.652Z" fill="url(#paint0_radial_1_2131)"/>
</g>
<defs>
<filter id="filter0_d_1_2131" x="0.981079" y="0.863525" width="169.36" height="169.049" filterUnits="userSpaceOnUse" color-interpolation-filters="sRGB">
<feFlood flood-opacity="0" result="BackgroundImageFix"/>
<feColorMatrix in="SourceAlpha" type="matrix" values="0 0 0 0 0 0 0 0 0 0 0 0 0 0 0 0 0 0 127 0" result="hardAlpha"/>
<feOffset dy="4"/>
<feGaussianBlur stdDeviation="15.5"/>
<feComposite in2="hardAlpha" operator="out"/>
<feColorMatrix type="matrix" values="0 0 0 0 0.388235 0 0 0 0 0 0 0 0 0 0.341176 0 0 0 0.5 0"/>
<feBlend mode="normal" in2="BackgroundImageFix" result="effect1_dropShadow_1_2131"/>
<feBlend mode="normal" in="SourceGraphic" in2="effect1_dropShadow_1_2131" result="shape"/>
</filter>
<radialGradient id="paint0_radial_1_2131" cx="0" cy="0" r="1" gradientUnits="userSpaceOnUse" gradientTransform="translate(69.0552 43.0615) rotate(29.4914) scale(86.1221 86.2131)">
<stop offset="0.00558659" stop-color="#DE6863"/>
<stop offset="0.2018" stop-color="#DB6563"/>
<stop offset="0.3542" stop-color="#D15D62"/>
<stop offset="0.4919" stop-color="#C14F60"/>
<stop offset="0.6209" stop-color="#A93B5E"/>
<stop offset="0.7437" stop-color="#8B225B"/>
<stop offset="0.8606" stop-color="#670357"/>
<stop offset="0.8715" stop-color="#630057"/>
</radialGradient>
</defs>
</svg>
