<svg width="174" height="174" viewBox="0 0 174 174" fill="none" xmlns="http://www.w3.org/2000/svg">
<g opacity="0.65" filter="url(#filter0_d_1_2054)">
<path fill-rule="evenodd" clip-rule="evenodd" d="M128.356 135.387L126.974 136.393C126.899 136.494 126.899 136.494 126.723 136.519C123.154 139.185 119.435 141.423 115.565 143.234C109.257 146.202 102.345 148.09 95.4581 148.896C87.415 149.779 79.145 149.078 71.1762 146.718C63.9615 144.609 57.0229 141.294 50.687 136.545C49.7819 135.867 48.8768 135.188 48.047 134.409C46.815 133.329 45.583 132.249 44.4263 131.068C36.707 123.555 31.2746 114.457 28.2549 104.655C28.0284 103.7 27.7265 102.846 27.4999 101.891C29.4605 101.789 31.9495 103.498 31.9495 103.498L30.5652 98.2198L25.484 87.1869C25.4577 83.869 25.6074 80.5258 26.0336 77.2329C26.1841 76.4034 26.2592 75.6744 26.4098 74.8449C26.4098 74.8449 26.4098 74.8449 26.4852 74.7443C26.6357 73.9148 26.7862 73.0852 26.9368 72.2557C27.4637 69.6665 28.2672 67.1275 29.146 64.488C29.7738 62.6026 30.5021 60.7926 31.331 59.0579C31.959 57.8009 32.5869 56.5439 33.2149 55.2869C34.6468 52.7477 36.2546 50.1833 38.0635 47.7696C38.5158 47.1662 38.8926 46.6634 39.3449 46.0599C39.9478 45.2554 40.7268 44.4256 41.3298 43.6211C42.0333 42.8919 42.7369 42.1627 43.3399 41.3581C43.4152 41.2576 43.4152 41.2576 43.4906 41.157C44.5208 40.2015 45.4505 39.1706 46.5813 38.2905C48.089 36.9075 49.6219 35.7005 51.2553 34.5688C53.4416 32.9091 55.8289 31.4001 58.1662 30.1676C60.5034 28.9352 62.9411 27.7781 65.4041 26.797C70.1802 27.5494 73.1464 28.2019 73.1464 28.2019C73.1464 28.2019 140.924 60.7799 142.583 60.4525C144.241 60.1252 148.214 64.045 148.214 64.045C149.674 67.9657 150.605 71.962 151.285 76.084C151.512 77.0391 151.562 78.0194 151.688 78.8991C151.688 79.5275 151.789 80.2313 151.789 80.8597C151.865 82.0159 151.916 82.9962 151.992 84.1524C152.043 88.2746 151.818 92.3467 151.141 96.3938C150.915 97.9523 150.514 99.536 150.188 101.019C141.372 122.212 124.359 133.177 124.359 133.177C126.094 134.006 127.376 134.81 128.356 135.387Z" fill="url(#paint0_radial_1_2054)"/>
<path fill-rule="evenodd" clip-rule="evenodd" d="M128.356 135.387L126.974 136.393C126.899 136.494 126.899 136.494 126.723 136.519C123.154 139.185 119.435 141.423 115.565 143.234C109.257 146.202 102.345 148.09 95.4581 148.896C87.415 149.779 79.145 149.078 71.1762 146.718C63.9615 144.609 57.0229 141.294 50.687 136.545C49.7819 135.867 48.8768 135.188 48.047 134.409C46.815 133.329 45.583 132.249 44.4263 131.068C36.707 123.555 31.2746 114.457 28.2549 104.655C28.0284 103.7 27.7265 102.846 27.4999 101.891C29.4605 101.789 31.9495 103.498 31.9495 103.498L30.5652 98.2198L25.484 87.1869C25.4577 83.869 25.6074 80.5258 26.0336 77.2329C26.1841 76.4034 26.2592 75.6744 26.4098 74.8449C26.4098 74.8449 26.4098 74.8449 26.4852 74.7443C26.6357 73.9148 26.7862 73.0852 26.9368 72.2557C27.4637 69.6665 28.2672 67.1275 29.146 64.488C29.7738 62.6026 30.5021 60.7926 31.331 59.0579C31.959 57.8009 32.5869 56.5439 33.2149 55.2869C34.6468 52.7477 36.2546 50.1833 38.0635 47.7696C38.5158 47.1662 38.8926 46.6634 39.3449 46.0599C39.9478 45.2554 40.7268 44.4256 41.3298 43.6211C42.0333 42.8919 42.7369 42.1627 43.3399 41.3581C43.4152 41.2576 43.4152 41.2576 43.4906 41.157C44.5208 40.2015 45.4505 39.1706 46.5813 38.2905C48.089 36.9075 49.6219 35.7005 51.2553 34.5688C53.4416 32.9091 55.8289 31.4001 58.1662 30.1676C60.5034 28.9352 62.9411 27.7781 65.4041 26.797C70.1802 27.5494 73.1464 28.2019 73.1464 28.2019C73.1464 28.2019 140.924 60.7799 142.583 60.4525C144.241 60.1252 148.214 64.045 148.214 64.045C149.674 67.9657 150.605 71.962 151.285 76.084C151.512 77.0391 151.562 78.0194 151.688 78.8991C151.688 79.5275 151.789 80.2313 151.789 80.8597C151.865 82.0159 151.916 82.9962 151.992 84.1524C152.043 88.2746 151.818 92.3467 151.141 96.3938C150.915 97.9523 150.514 99.536 150.188 101.019C141.372 122.212 124.359 133.177 124.359 133.177C126.094 134.006 127.376 134.81 128.356 135.387Z" fill="url(#paint1_radial_1_2054)"/>
<path fill-rule="evenodd" clip-rule="evenodd" d="M136.445 121.661C135.088 123.471 133.631 125.206 132.149 126.765C129.812 129.254 127.349 131.492 124.761 133.479C124.686 133.58 124.686 133.58 124.61 133.68C121.293 136.22 117.725 138.257 114.106 139.943C108.124 142.684 101.74 144.496 95.2052 145.253C87.6899 146.06 79.8725 145.384 72.3812 143.225C65.6442 141.316 59.0826 138.127 53.1491 133.68C52.3445 133.077 51.4394 132.398 50.7102 131.695C49.5788 130.69 48.3467 129.609 47.2153 128.604C39.9235 121.569 34.9185 112.949 32.075 103.75C31.6975 102.368 31.3199 100.985 30.9424 99.6029C30.892 99.251 30.7411 98.8238 30.6907 98.4719C29.9856 94.8023 29.4565 91.1075 29.4552 87.3372C29.3788 84.2958 29.5536 81.1286 29.9044 77.9362C29.9796 77.2072 30.0548 76.4783 30.3059 75.7241C30.3059 75.7241 30.3059 75.7241 30.3812 75.6235C30.5318 74.794 30.6069 74.0651 30.858 73.3109C31.4102 70.8977 32.1383 68.4592 32.967 66.0962C33.6199 64.3867 34.2729 62.6772 35.0264 61.0432C35.579 59.8867 36.1315 58.7303 36.8601 57.5487C38.2166 55.11 39.6736 52.7468 41.4072 50.4337C41.7841 49.9308 42.2363 49.3274 42.6132 48.8245C43.2162 48.02 43.9197 47.2908 44.4473 46.5868C45.1509 45.8577 45.6785 45.1537 46.3821 44.4245C46.4574 44.3239 46.4574 44.3239 46.5328 44.2234C47.3871 43.293 48.4173 42.3375 49.3722 41.4826C50.8045 40.2001 52.262 39.0937 53.7949 37.8866C55.9058 36.3275 58.0419 34.9443 60.3791 33.7118C62.7916 32.3788 65.4053 31.1965 68.0443 30.1902C69.8287 29.4858 71.7136 28.8567 73.6238 28.4036C76.2125 27.6738 78.9271 27.1953 81.5662 26.8173C96.3705 24.8768 111.981 28.5664 124.854 38.2142C125.357 38.591 125.86 38.9679 126.363 39.3448C126.865 39.7216 127.469 40.1739 127.896 40.6513C129.329 41.8825 130.587 43.1388 131.944 44.4706C131.944 44.4706 131.944 44.4706 132.045 44.5459C133.101 45.6516 134.157 46.7572 135.037 47.888C136.244 49.4209 137.451 50.9537 138.482 52.5118C139.262 53.5672 139.866 54.6479 140.57 55.8039C141.048 56.6332 141.526 57.4625 142.003 58.2918C142.029 58.4678 142.129 58.5432 142.255 58.7945C145.223 64.4742 147.186 70.6569 148.093 76.9908C148.219 77.8705 148.345 78.7502 148.471 79.6299C148.471 80.2583 148.647 80.8615 148.647 81.4899C148.698 82.4702 148.774 83.6264 148.824 84.6067C148.926 88.4525 148.576 92.2732 147.948 96.0438C147.146 100.468 145.89 104.867 144.157 109.065C143.103 111.73 141.671 114.269 140.164 116.909C138.681 118.468 137.651 120.052 136.445 121.661Z" fill="url(#paint2_radial_1_2054)"/>
<path fill-rule="evenodd" clip-rule="evenodd" d="M79.7894 49.515C79.7894 49.515 76.3715 51.3511 75.3673 54.9961C74.2626 58.5658 78.6364 59.0167 82.91 60.6491C87.1837 62.2814 93.5176 61.3744 97.5643 60.7949C101.611 60.2153 106.16 58.7559 108.22 55.5881C110.28 52.4203 108.569 47.997 108.569 47.997C108.569 47.997 110.907 47.3929 105.379 52.6733C99.926 57.8531 96.9604 59.0858 94.9747 59.0111C92.9889 58.9364 87.4337 58.3853 84.3419 58.1099C81.2501 57.8344 77.8566 57.3329 76.6747 55.976C75.5431 54.3425 77.1756 50.6973 79.7894 49.515Z" fill="url(#paint3_radial_1_2054)"/>
<path fill-rule="evenodd" clip-rule="evenodd" d="M87.8093 52.2271C87.8093 52.2271 84.7931 52.4795 84.3161 54.1638C83.8391 55.848 87.8615 57.6062 92.1844 56.4485C96.5074 55.2907 96.4559 51.7969 96.4559 51.7969C96.4559 51.7969 92.1842 55.82 89.4692 55.0418C86.7543 54.2635 86.2765 53.4342 86.2765 53.4342C86.2765 53.4342 86.0751 52.655 87.8093 52.2271Z" fill="url(#paint4_radial_1_2054)"/>
<path fill-rule="evenodd" clip-rule="evenodd" d="M80.8709 50.1681C80.8709 50.1681 84.0881 49.4381 87.4562 49.1353C90.8996 48.732 94.8466 50.5906 94.8466 50.5906C94.8466 50.5906 93.6643 47.9769 89.9189 47.5257C86.1987 47.2505 80.8709 50.1681 80.8709 50.1681Z" fill="url(#paint5_radial_1_2054)"/>
<path fill-rule="evenodd" clip-rule="evenodd" d="M73.554 44.8419C73.554 44.8419 81.0692 43.4066 87.4291 45.189C93.7891 46.9715 95.9511 47.6494 99.5203 47.4974C103.09 47.3454 106.558 47.7464 106.558 47.7464C106.558 47.7464 101.58 44.3296 90.6963 43.5541C79.9629 42.5775 74.6846 43.3334 73.554 44.8419Z" fill="url(#paint6_radial_1_2054)"/>
<path fill-rule="evenodd" clip-rule="evenodd" d="M64.2781 36.4755C64.2781 36.4755 76.5941 34.7117 84.2358 36.0413C91.8776 37.3709 96.8799 38.45 102.788 40.8359C108.62 43.3223 117.922 46.8382 117.922 46.8382L119.857 47.1894C119.857 47.1894 103.842 35.6576 88.9104 34.2048C73.9793 32.752 64.2781 36.4755 64.2781 36.4755Z" fill="url(#paint7_radial_1_2054)"/>
<path fill-rule="evenodd" clip-rule="evenodd" d="M66.719 51.0279C66.719 51.0279 60.6146 61.6875 62.0228 63.3712C63.431 65.0548 69.4651 69.5772 81.9835 71.7346C94.5019 73.892 95.483 76.3549 104.355 74.9946C113.228 73.6342 119.712 69.384 124.084 66.693C128.558 64.0773 132.276 59.9538 132.753 58.2695C132.753 58.2695 133.709 60.5566 130.845 64.3782C127.981 68.1998 122.051 73.8071 117.728 76.2216C113.33 78.7367 104.735 81.4041 97.5958 80.4513C90.4569 79.4986 76.1539 77.4173 66.3735 69.9301C56.4926 62.3676 58.6293 62.8696 59.131 60.1045C59.5322 57.264 66.719 51.0279 66.719 51.0279Z" fill="url(#paint8_radial_1_2054)"/>
<path opacity="0.5" fill-rule="evenodd" clip-rule="evenodd" d="M45.0507 47.6672C45.0507 47.6672 43.9214 52.9462 42.1131 57.245C40.4054 61.6192 35.6819 67.5026 39.0515 71.5986C42.4964 75.594 46.1938 82.6056 48.8334 83.4845C51.5735 84.4387 60.6743 89.0606 64.5215 93.3575C68.3688 97.6544 76.8917 103.257 80.7629 103.959C84.6341 104.662 93.6581 105.614 97.4037 106.693C101.149 107.773 107.584 107.57 113.742 106.688C119.9 105.806 122.814 101.708 125.227 100.375C127.64 99.0417 135.304 92.3781 137.816 88.6068C140.328 84.8356 143.166 76.4393 143.166 76.4393L142.737 72.8199C142.737 72.8199 138.317 83.9566 132.236 89.765C126.231 95.4729 125.201 98.942 116.003 101.785C106.728 104.73 96.5987 104.834 87.7248 101.795C78.7754 98.8574 74.3753 95.0885 66.5062 90.2902C59.1147 85.6929 50.7672 78.8086 48.0262 75.3408C45.5116 72.1997 42.8957 67.098 43.5467 59.7329C44.1473 52.016 45.0507 47.6672 45.0507 47.6672Z" fill="#7D72B3"/>
<path opacity="0.4" fill-rule="evenodd" clip-rule="evenodd" d="M68.5299 49.2425C68.5299 49.2425 61.3197 60.3299 61.9487 62.2149C62.5778 64.0998 65.1928 66.6879 68.4859 67.7425C71.8797 68.8724 83.1921 72.6389 85.4795 72.9398C87.767 73.2406 100.939 75.5737 103.98 75.4973C106.946 75.5214 113.305 72.2767 114.964 71.9494C116.622 71.6221 123.684 67.0198 126.096 65.0583C128.609 63.1723 131.122 60.6579 131.122 60.6579C131.122 60.6579 132.303 59.5012 131.574 58.1693C130.769 56.9379 130.266 57.1894 130.266 57.1894C130.266 57.1894 128.859 58.6478 124.462 62.4197C120.064 66.1915 94.9804 71.5792 85.0514 70.5772C75.1978 69.4746 68.6106 64.8518 66.5237 62.8165C64.3361 60.7059 67.0726 50.9774 68.5299 49.2425Z" fill="#7D72B3"/>
<path opacity="0.4" fill-rule="evenodd" clip-rule="evenodd" d="M66.7191 51.0279C66.7191 51.0279 71.92 44.7171 75.2879 43.7859C78.6558 42.8547 87.78 42.6254 92.3801 43.403C97.0808 44.256 103.717 45.4603 105.728 46.3393C107.739 47.2184 108.645 48.5251 108.645 48.5251C108.645 48.5251 107.463 45.9114 101.831 43.5757C96.2001 41.24 87.6288 41.5697 83.9588 41.018C80.3642 40.3657 73.9547 40.7449 71.6677 41.7009C69.6319 42.531 66.7191 51.0279 66.7191 51.0279Z" fill="#7D72B3"/>
<path opacity="0.4" fill-rule="evenodd" clip-rule="evenodd" d="M60.2558 35.3454L84.4107 33.5022L96.5522 36.1625C96.5522 36.1625 107.764 39.8536 112.641 41.9382C117.518 44.0228 126.821 50.6806 126.821 50.6806L131.271 54.8013C131.271 54.8013 126.316 44.0198 111.358 37.9923C96.5006 32.0402 85.0882 30.0835 78.9051 30.7894C72.8978 31.4702 62.2412 34.1633 60.2558 35.3454Z" fill="#7D72B3"/>
<path fill-rule="evenodd" clip-rule="evenodd" d="M59.4756 35.5464C59.4756 35.5464 44.5461 39.1208 43.9961 47.818C43.4461 56.5152 38.8245 66.2444 38.4986 68.9843C38.1728 71.7242 48.5833 84.2383 51.6504 85.5945C54.7174 86.9508 62.2592 90.0902 65.252 94.689C65.252 94.689 73.0458 99.5879 75.0571 101.095C77.1691 102.678 82.3474 103.732 83.5541 104.008C84.7607 104.284 90.8945 106.368 94.1625 107.247C97.4305 108.126 103.966 107.998 106.479 107.997C109.068 107.895 117.237 106.008 119.348 105.077C121.358 104.071 130.807 96.7026 134.727 92.7298C138.647 88.757 143.168 78.9525 143.845 74.9054C144.522 70.8583 142.132 64.8265 142.132 64.8265L143.414 63.7452L148.517 64.2713C148.517 64.2713 148.697 76.814 143.999 84.1302C141.286 88.379 135.809 97.7817 131.914 100.674C128.849 103.088 119.45 109.551 114.499 110.709C109.648 111.942 96.0501 114.159 90.8213 112.753C85.668 111.247 72.0168 104.314 64.9016 99.1382C59.5967 95.3194 48.8101 85.8217 43.329 81.3997C37.8479 76.9777 36.4632 70.4429 35.6074 66.9744C34.7516 63.506 39.0734 59.2062 39.8005 53.6258C40.3516 48.0706 42.9887 42.0371 45.602 39.5981C48.0646 37.3601 59.4756 35.5464 59.4756 35.5464Z" fill="url(#paint9_radial_1_2054)"/>
<path fill-rule="evenodd" clip-rule="evenodd" d="M46.1952 81.9767C45.2145 80.7706 44.5604 79.3381 43.5797 78.1319C43.0265 77.4031 42.4984 76.8503 41.9452 76.1216C41.392 75.3928 40.7634 74.7646 40.0594 74.237C38.7268 73.0812 37.5449 71.7243 37.4689 69.9396C37.4181 68.331 37.7444 66.8479 38.4225 65.3144C39.201 63.2278 40.08 61.2166 40.7832 59.2307C41.4863 57.2447 41.8627 55.4851 42.0128 53.3987C42.088 52.6698 42.2385 51.8402 42.2131 51.0359C42.2882 50.3069 42.0869 49.5278 42.2375 48.6983C42.5887 46.7627 43.5181 45.1034 44.7241 43.4943C45.3271 42.6897 46.1312 42.0359 46.9353 41.3821C47.8902 40.5272 48.8703 39.8482 50.0515 39.3199C51.1573 38.8922 52.2379 38.2886 53.3438 37.8609C55.8821 36.7792 58.4205 35.6975 61.0092 34.9677C64.3017 34.1371 67.7954 33.4572 71.2388 33.0539C73.1742 32.7767 75.2353 32.7508 77.2964 32.725C79.0057 32.7495 80.6897 32.5982 82.2984 32.5473C85.1639 32.4961 87.9542 33.1738 90.8199 33.7509C94.2386 34.4284 97.6573 35.1059 100.95 36.1605C104.897 37.3908 108.693 38.8222 112.439 40.5302C116.688 42.615 120.66 45.2781 124.381 48.0669C126.393 49.5743 128.756 51.0314 130.24 53.2428C131.044 54.4742 131.975 55.9569 132.428 57.2387C132.478 57.5906 132.579 57.6659 132.629 58.0178C132.654 58.1938 132.504 58.3949 132.529 58.5708C132.428 59.1239 132.152 59.7021 131.851 60.1044C131.549 60.5066 131.046 60.7582 130.745 61.1605C130.293 61.7639 129.639 62.2165 129.187 62.8199C128.659 63.5239 128.081 63.876 127.453 64.5046C126.348 65.5607 125.242 66.6168 123.835 67.4468C121.849 68.6288 119.99 70.0622 118.08 71.1437C117.502 71.4958 116.798 71.5966 116.12 71.8733C115.542 72.2254 115.114 72.3764 114.436 72.6531C113.33 73.0808 112.249 73.6844 111.118 73.9362C108.705 74.6408 106.318 75.5214 103.729 75.6228C100.688 75.6992 97.6963 75.4992 94.7552 75.0226C92.8196 74.6714 90.9594 74.2196 89.0238 73.8683C87.3648 73.5673 85.5298 73.2914 83.7701 72.915C79.4213 72.0116 75.0723 70.4798 70.8239 69.0233C69.592 68.5713 68.4608 68.1947 67.3044 67.6421C66.3239 67.0643 64.9915 66.5369 64.0863 65.8585C63.0807 65.1048 62.3011 64.0494 61.5215 62.9939C60.2893 61.2851 61.4448 59.3241 62.4749 57.7402C63.2034 56.5586 63.932 55.377 64.4845 54.2205C64.9618 53.1646 65.5648 52.3601 66.042 51.3042C66.5192 50.2484 67.097 49.2679 67.7753 48.3627C68.6798 47.1559 69.8358 46.4517 71.042 45.471C71.7707 44.9178 72.3737 44.1132 73.3036 43.7107C74.4596 43.0065 75.9425 42.7044 77.3753 42.6788C78.7074 42.5778 80.2155 42.4516 81.5477 42.3506C82.4274 42.2246 83.2569 42.3751 84.0613 42.3497C85.494 42.3241 86.9519 42.4744 88.435 42.8007C89.5411 43.0014 90.6721 42.7496 91.8536 42.8498C93.035 42.9499 94.317 43.1254 95.4984 43.2255C96.5039 43.3509 97.4591 43.7527 98.4898 44.054C99.244 44.3051 100.149 44.3551 100.903 44.6062C101.657 44.8573 102.336 45.2089 103.09 45.46C103.844 45.7111 104.498 45.8868 105.252 46.1379C106.107 46.4644 106.962 46.7909 107.565 47.2431C108.872 48.223 109.024 49.2786 108.446 50.8875C107.667 52.9741 105.933 54.0304 104.124 55.1873C102.641 56.1178 101.134 56.8724 99.7514 57.8783C97.8666 59.1357 95.5791 58.8349 93.3673 59.0619C91.0548 59.2135 88.4407 59.1389 86.304 58.6369C85.6504 58.4612 84.8962 58.2101 84.2426 58.0344C83.6896 57.934 82.9606 57.8589 82.4076 57.7585C81.9551 57.7336 81.6032 57.7839 81.1508 57.759C80.7989 57.8094 80.4972 57.5832 80.0448 57.5583C79.1398 57.5083 78.2349 57.4583 77.3048 57.2324C76.4753 57.0819 75.0172 56.3032 75.2179 55.1971C75.3182 54.6441 75.6951 54.1413 75.896 53.6636C76.1723 53.0854 76.5492 52.5826 76.926 52.0797C77.3029 51.5769 77.705 51.25 78.1824 50.8225C78.6598 50.395 79.1625 50.1435 79.7405 49.7914C81.2986 48.7603 82.9574 48.4329 84.591 47.9297C85.6215 47.6025 86.6519 47.2754 87.783 47.0237C89.4418 46.6964 91.0507 47.2739 92.559 47.7761C93.8914 48.3035 95.8272 49.2832 96.4813 50.7157C96.9341 51.9975 95.4263 52.752 94.5969 53.2299C94.0943 53.4814 93.6922 53.8084 93.1896 54.0599C92.8629 54.2862 92.5614 54.6885 92.1342 54.8394C91.2796 55.1414 90.2742 55.016 89.2939 55.0667C88.942 55.117 88.3136 55.1172 87.9365 54.9917C87.4589 54.7908 87.0566 54.4893 86.579 54.2884C86.3778 54.1376 86.0511 54.364 85.9254 54.1126C85.7996 53.8613 85.9503 53.6602 86.1011 53.459C86.2518 53.2579 86.5032 53.1321 86.7545 53.0064C86.7545 53.0064 86.8299 52.9058 86.9052 52.8052C87.5586 52.3526 88.7902 52.1762 89.4687 51.8995C89.8208 52.4775 89.293 52.553 88.9663 52.7794C88.715 52.9051 88.5643 53.1063 88.4135 53.3074C88.2628 53.5086 87.735 53.5842 87.7854 53.9361C87.8106 54.112 88.4641 54.2877 88.5647 54.3631C90.073 54.8653 91.7569 54.0855 92.9882 53.2807C93.7924 52.6269 94.6969 51.4201 94.1938 50.4148C93.7411 49.7614 92.8612 49.2591 92.2578 48.8068C89.9447 47.0732 86.6524 48.5322 84.139 49.1615C82.5054 49.6648 80.8969 50.344 79.4142 51.2745C78.4342 51.9535 77.5546 52.7079 76.6751 53.4623C75.9464 54.0155 74.9915 54.8705 76.0726 55.5236C76.7514 55.8753 77.5809 56.0258 78.3351 56.2769C78.9887 56.4526 79.4663 56.6536 80.1953 56.7287C81.2008 56.8541 82.1813 57.4318 83.1867 57.5572C84.0163 57.7077 84.8458 57.8582 85.6753 58.0088C87.7868 58.3348 90.5266 58.0322 92.5121 57.4786C93.8944 57.1011 95.5283 57.2262 96.9358 57.0246C98.444 56.8984 99.6753 56.0936 101.032 55.5402C102.465 54.8862 103.52 54.1066 104.651 53.2265C105.606 52.3715 107.215 51.6923 107.641 50.2845C108.169 48.9522 106.66 47.8216 105.68 47.2438C104.8 46.7413 103.845 46.3395 102.889 45.9377C101.104 45.3853 99.3448 45.0089 97.5851 44.6324C94.7948 43.9547 91.9294 44.006 89.1141 43.7807C87.6562 43.6304 86.173 43.3041 84.7403 43.3298C83.6595 43.305 82.5284 43.5568 81.4476 43.532C80.6432 43.5574 79.9646 43.8341 79.1351 43.6836C78.0542 43.6588 77.074 43.7094 76.1189 43.936C75.3398 44.1373 74.3093 44.4645 73.6559 44.9171C73.0779 45.2692 72.9022 45.9228 72.5253 46.4257C71.9977 47.1296 71.269 47.6829 70.7414 48.3869C70.2138 49.0909 69.6108 49.8954 69.0832 50.5994C67.9526 52.1079 66.6962 53.3652 65.641 54.7731C64.9626 55.6782 64.41 56.8347 64.0082 57.79C63.5811 58.5693 63.4306 59.3989 63.0036 60.1782C62.6267 60.6811 62.275 61.3598 62.4512 61.963C62.577 62.2144 62.8033 62.5411 62.9291 62.7924C63.0548 63.0437 63.1806 63.295 63.3817 63.4457C63.4823 63.5211 63.5075 63.6971 63.7086 63.8478C63.8092 63.9232 63.759 64.1997 63.759 64.1997C63.8848 64.451 64.3624 64.6519 64.5636 64.8027C65.2424 65.1544 65.9211 65.506 66.5747 65.6817C68.234 66.6112 69.642 67.6664 71.4268 68.2188C73.4882 68.8214 75.6751 69.0468 77.6359 69.574C80.7027 70.3019 83.8451 71.5576 86.9621 72.009C88.3446 72.2599 89.9031 72.4856 91.2103 72.837C94.5536 73.6151 97.8468 74.6696 101.24 74.5428C102.497 74.5424 103.804 74.2654 105.035 74.0891C105.739 73.9883 106.443 73.8875 107.222 73.6861C109.384 73.1073 111.52 72.3525 113.455 71.4469C114.31 71.145 115.114 70.4912 115.868 70.1139C117.225 69.5604 118.507 69.1076 119.864 68.5541C121.12 67.9253 122.176 67.1457 123.307 66.2656C124.035 65.7123 124.613 65.3602 125.04 64.5809C126.096 63.1729 127.101 62.0415 128.684 61.1863C129.513 60.7084 130.77 60.0796 131.071 59.0489C131.272 58.5713 130.744 58.0185 130.518 57.6918C129.939 56.7871 129.285 55.9829 128.707 55.0782C128.229 54.2489 128.028 53.4698 127.298 52.7662C127.072 52.4396 126.77 52.2134 126.469 51.9873C125.664 51.3843 124.609 51.5355 123.879 50.832C123.678 50.6812 123.552 50.4299 123.251 50.2038C122.924 49.8017 122.446 49.6008 122.044 49.2993C121.139 48.6209 120.485 47.8168 119.58 47.1385C118.574 46.3848 117.493 45.7316 116.412 45.0784C115.331 44.4253 114.501 43.6463 113.496 42.8926C112.892 42.4403 112.264 42.4406 111.61 42.2648C110.957 42.0891 110.378 41.8128 109.725 41.6371C109.071 41.4614 108.593 41.2605 108.015 40.9842C107.311 40.4566 106.783 39.9037 105.929 39.5773C104.973 39.1754 103.943 38.8742 102.912 38.5729C100.122 37.8952 97.1051 37.5192 94.365 36.5649C93.0326 36.0375 91.7756 35.4096 90.4684 35.0581C89.9154 34.9577 89.4629 34.9328 88.8345 34.933C87.7537 34.9082 86.7482 34.7829 85.7428 34.6576C83.3799 34.4573 81.0423 34.433 78.5287 34.4338C75.7386 34.3845 72.9737 34.5111 70.1838 35.0902C65.3078 36.1476 60.3313 37.1296 55.5309 38.7148C53.294 39.3942 50.8058 40.1994 48.8205 41.3815L48.7451 41.482C47.5891 42.1862 46.6343 43.0412 45.9057 44.2228C45.9057 44.2228 45.9057 44.2228 45.8304 44.3234C45.2526 45.3039 44.9011 46.6111 44.5998 47.6418C44.3991 48.7478 43.9973 49.7031 43.8971 50.8845C43.797 52.0659 43.9734 53.2975 43.5967 54.4288C43.1699 55.8365 42.6677 57.3448 42.1655 58.8532C41.5126 60.5626 40.7843 62.3726 39.8548 64.0319C39.3776 65.0878 38.7244 66.1689 38.6243 67.3503C38.3232 69.0094 39.3291 70.3915 39.9078 71.9246C40.2097 72.7791 40.436 73.1058 41.14 73.6334C41.9698 74.4123 42.8247 75.3672 43.5037 76.3472C44.9623 78.3827 46.6722 80.2925 48.6836 81.7999C49.8904 82.7044 51.3233 83.3072 52.5803 83.9352C53.762 84.6637 54.9436 85.3922 56.2006 86.0202C57.357 86.5728 58.5135 87.1254 59.5192 87.8791C60.5249 88.6328 61.4804 89.6631 62.2348 90.5426C63.5676 92.3267 64.9506 93.8344 66.6602 95.1158C67.7665 95.9449 68.9983 96.3969 70.1046 97.226C71.1856 97.8792 71.94 98.7586 72.8703 99.6129C74.5046 100.995 76.5158 101.874 78.5771 102.476C79.9849 102.903 81.2669 103.079 82.7248 103.229C83.9062 103.329 84.7861 103.832 85.7414 104.234C87.828 105.012 89.9899 105.69 92.2774 105.991C95.1932 106.291 98.1843 105.863 101.1 106.164C102.734 106.289 104.418 106.766 106.052 106.891C107.409 106.966 108.842 106.94 110.149 106.663C111.733 106.437 113.216 106.134 114.799 105.908C116.031 105.731 117.011 105.052 117.915 104.474C119.499 103.619 120.68 102.462 121.936 101.205C123.192 99.9476 124.7 99.193 126.208 98.4384C128.219 97.4323 129.953 96.376 131.41 94.6411C132.566 93.3085 133.747 92.1519 134.802 90.7439C135.48 89.8388 135.983 88.9589 136.46 87.903C136.962 87.0231 137.364 86.0678 137.867 85.1879C138.419 84.0314 139.173 83.0257 139.726 81.8693C140.127 80.914 140.605 79.8581 141.082 78.8022C141.333 78.0481 141.584 77.2939 141.835 76.5398C142.187 75.2326 142.337 73.7746 142.311 72.3419C142.311 71.7135 141.984 71.3115 141.833 70.8842C141.682 70.457 141.833 70.2558 141.607 69.9291C141.355 69.4265 141.104 68.9239 140.852 68.4212C140.45 67.4913 139.821 66.8632 139.418 65.9333C139.041 65.1793 138.815 64.2242 138.513 63.3697C138.11 62.4398 137.632 61.6105 137.481 60.5549C137.33 59.4992 137.455 58.4937 137.329 57.614C137.178 56.5584 136.675 55.5531 136.449 54.598C136.021 52.8638 134.688 51.708 133.858 50.3007C133.481 49.5467 132.777 49.0191 132.324 48.3658C131.67 47.5616 131.469 46.7825 130.74 46.0789C130.111 45.4508 129.407 44.9232 128.753 44.119C128.426 43.717 128.1 43.3149 127.597 42.938C126.868 42.2345 125.887 41.6567 125.007 41.1543C124.228 40.7272 123.499 40.0237 122.795 39.4961C122.191 39.0438 121.412 38.6168 120.884 38.064C119.3 36.4056 117.313 35.0741 115.428 33.8179C113.643 32.6372 111.858 31.4564 109.796 30.8538C108.012 30.3014 106.403 29.7239 104.618 29.1715C103.411 28.8954 102.23 28.7953 100.948 28.6198C97.9314 28.2437 94.9654 28.2196 92.0747 28.095C88.7316 27.9453 85.4137 27.9715 82.0958 27.9978C79.9341 27.9483 77.697 27.9993 75.6359 28.0252C74.6556 28.0758 73.6753 28.1264 72.7956 28.2524C75.3843 27.5225 78.0989 27.044 80.738 26.6661C95.5423 24.7256 111.153 28.4152 124.026 38.0629C124.529 38.4398 125.031 38.8167 125.534 39.1935C126.037 39.5704 126.641 40.0226 127.068 40.5C128.501 41.7312 129.758 42.9876 131.116 44.3193C131.116 44.3193 131.116 44.3193 131.217 44.3947C132.524 46.0029 133.757 47.7117 135.089 49.4959C136.196 50.9534 137.202 52.3356 138.208 53.7177C138.887 54.6977 139.39 55.703 140.069 56.683C140.647 57.5877 141.226 58.4924 141.628 59.4223C142.307 61.0308 142.811 62.6645 143.213 64.2227C143.54 65.2532 143.717 66.4848 143.868 67.5404C144.095 69.1239 144.146 70.7326 144.096 72.2659C143.821 75.9861 143.018 79.7819 141.36 83.2512C139.978 86.1423 138.019 88.7571 136.034 91.1959C134.953 92.428 133.622 93.7858 132.34 94.867C130.908 96.1495 129.425 97.08 128.093 98.4378C127.465 99.0664 126.963 99.9463 126.335 100.575C125.782 101.103 125.128 101.556 124.576 102.084C123.47 103.14 122.088 104.146 120.655 104.8C118.645 105.806 116.659 106.359 114.473 106.762C112.035 107.291 109.597 107.82 107.133 108.173C104.695 108.701 102.182 108.702 99.7184 108.426C97.808 108.251 95.6463 108.202 93.8615 107.649C92.0767 107.097 89.9651 106.771 88.3058 105.841C87.1242 105.113 85.9176 104.837 84.4849 104.862C83.6805 104.888 82.8008 105.014 81.9211 105.14C81.1168 105.165 80.5385 104.889 79.7844 104.638C78.1755 104.06 76.9435 102.98 75.5355 101.925C73.5241 100.417 71.4626 99.1861 69.401 97.9552C68.32 97.302 67.2389 96.6489 66.4091 95.8699C65.5794 95.091 64.825 94.2115 64.0958 93.508C63.1655 92.6537 62.2604 91.9753 61.4055 91.0204C60.6763 90.3169 60.0729 89.8646 59.2935 89.4376C58.6147 89.0859 58.0867 88.5331 57.3827 88.0055C56.7039 87.6538 55.9245 87.2268 55.2458 86.8751C52.3799 85.6696 48.6846 84.9419 46.1952 81.9767Z" fill="#00C4FF"/>
<path fill-rule="evenodd" clip-rule="evenodd" d="M27.5253 102.067C27.5253 102.067 37.2564 112.344 42.3603 116.012C50.1543 121.539 58.326 129.077 65.0139 134.404C71.7019 139.73 87.8905 143.068 90.8568 143.72C93.823 144.373 101.314 145.275 109.784 143.613C118.254 141.952 126.32 134.961 126.32 134.961L124.41 133.529C124.41 133.529 120.992 136.622 115.161 138.534C111.643 139.666 107.646 139.969 102.142 140.399C94.224 140.904 85.5768 139.449 78.0349 136.31C68.0043 132.09 61.0144 125.909 55.1818 122.794C46.9106 118.323 32.1758 103.196 32.1758 103.196L27.5253 102.067Z" fill="url(#paint10_radial_1_2054)"/>
<path fill-rule="evenodd" clip-rule="evenodd" d="M28.7555 94.3501C28.7555 94.3501 27.0986 100.333 27.5265 102.067C27.5265 102.067 29.8648 103.977 31.9761 103.674L30.5918 98.3964L28.7555 94.3501Z" fill="url(#paint11_radial_1_2054)"/>
<path fill-rule="evenodd" clip-rule="evenodd" d="M133.003 126.463C133.003 126.463 130.291 132.597 128.281 135.488C128.281 135.488 125.465 135.263 124.51 133.604C124.51 133.604 131.043 128.449 133.003 126.463Z" fill="url(#paint12_radial_1_2054)"/>
<path fill-rule="evenodd" clip-rule="evenodd" d="M138.031 52.4863C138.031 52.4863 147.234 60.954 148.341 64.2966C148.341 64.2966 145.375 64.9009 143.238 63.7705C143.414 63.7453 138.685 53.2905 138.031 52.4863Z" fill="#EE8CFF"/>
<path fill-rule="evenodd" clip-rule="evenodd" d="M65.4292 26.9733L70.0048 29.4601L73.1967 28.5541C73.2721 28.4536 69.3758 27.5752 65.4292 26.9733Z" fill="#FF61C7"/>
<path opacity="0.5" fill-rule="evenodd" clip-rule="evenodd" d="M25.4098 87.2883C25.4098 87.2883 40.4982 107.392 55.2568 118.924C70.1161 130.532 78.2353 131.434 86.732 133.718C95.1533 136.103 110.11 138.36 116.569 136.448C122.953 134.636 133.005 126.463 133.005 126.463C133.005 126.463 118.581 139.212 114.006 139.867C109.331 140.447 91.359 139.699 88.4933 139.122C85.6276 138.545 76.7547 138.648 67.3006 129.678C67.3006 129.678 59.6076 125.483 57.2441 123.398C54.8806 121.312 49.0741 120.887 43.6673 113.222C43.6673 113.222 34.0878 105.257 32.3527 103.172C30.4417 101.111 25.4098 87.2883 25.4098 87.2883Z" fill="#54469B"/>
<path fill-rule="evenodd" clip-rule="evenodd" d="M45.3623 70.5151C45.3623 70.5151 59.2424 85.3153 71.7123 92.7764C84.1822 100.237 92.6034 101.994 97.505 102.369C102.407 102.745 114.044 100.629 118.869 99.2202C123.62 97.9115 130.781 90.871 130.781 90.871C130.781 90.871 125.455 98.8157 120.981 100.803C116.483 102.614 104.996 103.9 100.823 103.6C96.6507 103.3 85.3893 101.77 80.7383 99.384C76.0874 96.9977 67.6659 93.9843 63.3158 89.3105C59.0914 84.8881 46.8724 76.0445 45.3623 70.5151Z" fill="#B04FE2"/>
<path fill-rule="evenodd" clip-rule="evenodd" d="M48.2654 112.743C48.2654 112.743 65.6884 124.073 72.4007 127.062C79.113 130.051 88.9169 132.687 95.6539 134.595C102.316 136.603 109.203 135.796 113.702 135.87C118.201 135.944 128.555 129.883 128.555 129.883C128.555 129.883 119.584 136.824 113.853 136.926C108.122 137.029 94.8498 135.248 80.8481 132.136C65.1621 128.547 57.2415 120.255 48.2654 112.743Z" fill="#8B40E0"/>
<path fill-rule="evenodd" clip-rule="evenodd" d="M121.972 135.314C122.877 134.736 123.681 134.082 124.51 133.604C121.193 136.144 117.625 138.181 114.006 139.867C113.302 139.967 112.397 139.917 111.693 140.018C110.914 140.22 110.21 140.32 109.431 140.522C105.636 140.975 101.79 141.077 97.9692 140.727C94.0731 140.477 90.2523 140.126 86.3559 139.248C83.3897 138.595 80.4736 137.666 77.7083 136.536C75.4206 135.607 73.2585 134.3 71.2723 132.969C70.1912 132.316 69.2107 131.738 68.1297 131.085C66.8475 130.281 65.5401 129.301 64.2831 128.673C61.8696 127.492 59.5315 126.211 57.3442 124.729C55.4586 123.473 53.4222 122.418 51.612 121.061C49.2989 119.328 47.2873 117.192 44.9742 115.458C42.7617 113.8 40.524 111.966 38.4622 110.107C37.2302 109.026 36.1489 107.745 34.9169 106.664C33.886 105.734 33.0058 104.604 31.975 103.674C31.5974 102.292 31.22 100.909 30.8424 99.5269C30.7921 99.175 30.6411 98.7478 30.5907 98.3959C31.5966 99.778 32.5019 101.085 33.5078 102.467C34.8658 104.427 36.6511 106.236 38.3106 107.794C39.6684 109.126 41.5038 110.658 43.3138 111.387C45.2244 112.19 45.9538 113.522 46.9096 115.181C47.3874 116.01 47.9155 116.563 48.4687 117.292C49.2483 118.347 50.0277 118.774 51.1087 119.428C52.0892 120.005 53.1451 120.483 54.025 120.985C54.8798 121.311 55.9104 121.613 56.6898 122.04C58.1479 122.818 59.7066 123.673 60.7879 124.954C62.0703 126.386 63.5035 127.618 65.1628 128.547C66.998 129.451 68.4813 130.406 70.0904 131.612C70.5933 131.989 71.0208 132.466 71.5236 132.843C72.0516 133.396 72.7052 133.572 73.3087 134.024C74.3897 134.677 75.5462 135.23 76.778 135.682C77.9092 136.058 79.1158 136.334 80.2471 136.711C82.5849 137.364 84.5457 137.891 86.9839 137.991C88.9696 138.065 90.9304 138.593 92.9162 138.667C94.8266 138.843 96.7619 138.565 98.597 138.841C100.608 139.092 102.644 138.89 104.63 138.965C105.886 138.964 107.219 138.863 108.475 138.863C109.556 138.888 110.662 139.088 111.818 139.013C113.678 138.836 115.538 138.66 117.398 137.855C119.007 137.175 120.59 136.32 121.972 135.314Z" fill="#00C4FF"/>
<path fill-rule="evenodd" clip-rule="evenodd" d="M90.706 70.5755C90.706 70.5755 109.256 69.7145 120.942 64.1807C121.043 64.256 97.2404 67.934 90.706 70.5755Z" fill="#FF77F4"/>
<path fill-rule="evenodd" clip-rule="evenodd" d="M70.2715 72.694C70.2715 72.694 77.5125 78.1209 88.0454 80.832C98.5782 83.543 107.802 79.6187 107.802 79.6187C107.802 79.6187 98.4516 80.7781 90.3322 79.2476C82.2128 77.7171 77.2601 75.1047 70.2715 72.694Z" fill="#F9C6FF"/>
<path fill-rule="evenodd" clip-rule="evenodd" d="M110.315 78.9893C110.315 78.9893 112.702 77.4803 116.924 74.9904C121.146 72.5006 123.86 71.3937 123.86 71.3937C123.86 71.3937 119.237 76.724 110.315 78.9893Z" fill="#EA9CF4"/>
<path fill-rule="evenodd" clip-rule="evenodd" d="M53.3625 90.0181C53.3625 90.0181 61.6105 99.9691 76.594 107.429C91.5775 114.89 92.6833 114.462 98.4896 114.259C104.221 114.156 109.549 112.495 112.012 112.143C114.475 111.79 119.828 108.42 119.828 108.42C119.828 108.42 111.132 112.269 102.41 112.8C93.7638 113.23 87.6805 112.126 77.6746 106.826C67.8447 101.5 57.7374 93.611 53.3625 90.0181Z" fill="#D374F4"/>
<path fill-rule="evenodd" clip-rule="evenodd" d="M45.7787 118.575C45.7787 118.575 54.3275 126.238 57.5209 129.731C60.639 133.324 67.8548 138.575 73.1087 140.157C78.3626 141.739 89.6492 143.444 89.6492 143.444C89.6492 143.444 78.9409 142.015 69.1359 136.237C59.5069 130.434 55.1062 124.78 45.7787 118.575Z" fill="#D374F4"/>
<path fill-rule="evenodd" clip-rule="evenodd" d="M93.3463 144.172C93.3463 144.172 102.119 144.622 106.819 144.218C106.895 144.117 100.712 146.08 93.3463 144.172Z" fill="#D374F4"/>
<path fill-rule="evenodd" clip-rule="evenodd" d="M86.4306 61.4027C86.4306 61.4027 96.8369 61.3488 101.587 59.4118C106.412 57.3741 108.121 55.5134 108.121 55.5134C108.121 55.5134 106.388 59.7117 99.1493 61.1972C91.8101 62.6073 86.4306 61.4027 86.4306 61.4027Z" fill="#F2C4F8"/>
<path fill-rule="evenodd" clip-rule="evenodd" d="M35.5815 64.2853C33.8228 66.4224 33.1453 69.8411 35.9369 74.2892C38.7285 78.7373 42.047 80.5962 42.047 80.5962C42.047 80.5962 38.1998 76.2993 36.9669 72.7053C35.8848 68.9102 35.5815 64.2853 35.5815 64.2853Z" fill="#F5CEFA"/>
</g>
<defs>
<filter id="filter0_d_1_2054" x="7.40979" y="12.166" width="162.589" height="159.098" filterUnits="userSpaceOnUse" color-interpolation-filters="sRGB">
<feFlood flood-opacity="0" result="BackgroundImageFix"/>
<feColorMatrix in="SourceAlpha" type="matrix" values="0 0 0 0 0 0 0 0 0 0 0 0 0 0 0 0 0 0 127 0" result="hardAlpha"/>
<feOffset dy="4"/>
<feGaussianBlur stdDeviation="9"/>
<feComposite in2="hardAlpha" operator="out"/>
<feColorMatrix type="matrix" values="0 0 0 0 0.956863 0 0 0 0 0.776471 0 0 0 0 1 0 0 0 0.5 0"/>
<feBlend mode="normal" in2="BackgroundImageFix" result="effect1_dropShadow_1_2054"/>
<feBlend mode="normal" in="SourceGraphic" in2="effect1_dropShadow_1_2054" result="shape"/>
</filter>
<radialGradient id="paint0_radial_1_2054" cx="0" cy="0" r="1" gradientUnits="userSpaceOnUse" gradientTransform="translate(70.4222 44.3562) rotate(36.8503) scale(97.2989 97.2989)">
<stop offset="0.00558659" stop-color="#FF9AFF"/>
<stop offset="0.0930098" stop-color="#FB94FF"/>
<stop offset="0.2093" stop-color="#F183FF"/>
<stop offset="0.3418" stop-color="#E068FF"/>
<stop offset="0.4864" stop-color="#C841FF"/>
<stop offset="0.639" stop-color="#A910FF"/>
<stop offset="0.6844" stop-color="#9F00FF"/>
<stop offset="0.7432" stop-color="#9900F8"/>
<stop offset="0.8282" stop-color="#8700E5"/>
<stop offset="0.9287" stop-color="#6A00C6"/>
<stop offset="1" stop-color="#5200AB"/>
</radialGradient>
<radialGradient id="paint1_radial_1_2054" cx="0" cy="0" r="1" gradientUnits="userSpaceOnUse" gradientTransform="translate(70.4222 44.3562) rotate(36.8503) scale(97.2989 97.2989)">
<stop offset="0.00558659" stop-color="#FF9AFF"/>
<stop offset="0.0930098" stop-color="#FB94FF"/>
<stop offset="0.2093" stop-color="#F183FF"/>
<stop offset="0.3418" stop-color="#E068FF"/>
<stop offset="0.4864" stop-color="#C841FF"/>
<stop offset="0.639" stop-color="#A910FF"/>
<stop offset="0.6844" stop-color="#9F00FF"/>
<stop offset="0.7432" stop-color="#9900F8"/>
<stop offset="0.8282" stop-color="#8700E5"/>
<stop offset="0.9287" stop-color="#6A00C6"/>
<stop offset="1" stop-color="#5200AB"/>
</radialGradient>
<radialGradient id="paint2_radial_1_2054" cx="0" cy="0" r="1" gradientUnits="userSpaceOnUse" gradientTransform="translate(76.0063 41.5065) rotate(36.8503) scale(95.6437 95.6437)">
<stop offset="0.00558659" stop-color="#FF9AFF"/>
<stop offset="0.0930098" stop-color="#FB94FF"/>
<stop offset="0.2093" stop-color="#F183FF"/>
<stop offset="0.3418" stop-color="#E068FF"/>
<stop offset="0.4864" stop-color="#C841FF"/>
<stop offset="0.639" stop-color="#A910FF"/>
<stop offset="0.6844" stop-color="#9F00FF"/>
<stop offset="0.7432" stop-color="#9900F8"/>
<stop offset="0.8282" stop-color="#8700E5"/>
<stop offset="0.9287" stop-color="#6A00C6"/>
<stop offset="1" stop-color="#5200AB"/>
</radialGradient>
<radialGradient id="paint3_radial_1_2054" cx="0" cy="0" r="1" gradientUnits="userSpaceOnUse" gradientTransform="translate(92.1375 40.9546) rotate(36.8503) scale(21.3863 21.3863)">
<stop offset="0.630208" stop-color="white"/>
<stop offset="1" stop-color="#EF9AFF"/>
</radialGradient>
<radialGradient id="paint4_radial_1_2054" cx="0" cy="0" r="1" gradientUnits="userSpaceOnUse" gradientTransform="translate(90.2244 49.1818) rotate(36.8503) scale(7.43996 7.43994)">
<stop stop-color="white"/>
<stop offset="1" stop-color="#F7ABFF"/>
</radialGradient>
<radialGradient id="paint5_radial_1_2054" cx="0" cy="0" r="1" gradientUnits="userSpaceOnUse" gradientTransform="translate(86.9758 45.8863) rotate(36.8503) scale(7.83987 7.83986)">
<stop stop-color="white"/>
<stop offset="1" stop-color="#F9D0FD"/>
</radialGradient>
<radialGradient id="paint6_radial_1_2054" cx="0" cy="0" r="1" gradientUnits="userSpaceOnUse" gradientTransform="translate(87.0662 36.5188) rotate(36.8503) scale(18.1098 18.1097)">
<stop stop-color="white"/>
<stop offset="1" stop-color="#F7C2FC"/>
</radialGradient>
<radialGradient id="paint7_radial_1_2054" cx="0" cy="0" r="1" gradientUnits="userSpaceOnUse" gradientTransform="translate(85.0956 26.2446) rotate(36.8503) scale(30.7043 30.7043)">
<stop stop-color="white"/>
<stop offset="1" stop-color="#F5AEFE"/>
</radialGradient>
<radialGradient id="paint8_radial_1_2054" cx="0" cy="0" r="1" gradientUnits="userSpaceOnUse" gradientTransform="translate(91.2831 36.9608) rotate(36.8503) scale(42.7826)">
<stop offset="0.744792" stop-color="white"/>
<stop offset="0.9998" stop-color="#E886FF"/>
<stop offset="0.9999" stop-color="#ED8CFF"/>
</radialGradient>
<radialGradient id="paint9_radial_1_2054" cx="0" cy="0" r="1" gradientUnits="userSpaceOnUse" gradientTransform="translate(80.4203 29.2119) rotate(36.8503) scale(72.2792 72.2792)">
<stop offset="0.84375" stop-color="#EEADFE"/>
<stop offset="1" stop-color="#B439EE"/>
</radialGradient>
<radialGradient id="paint10_radial_1_2054" cx="0" cy="0" r="1" gradientUnits="userSpaceOnUse" gradientTransform="translate(60.005 92.5779) rotate(36.8503) scale(56.9666 56.9666)">
<stop offset="0.572917" stop-color="#EEB9FF"/>
<stop offset="1" stop-color="#7801BD"/>
</radialGradient>
<radialGradient id="paint11_radial_1_2054" cx="0" cy="0" r="1" gradientUnits="userSpaceOnUse" gradientTransform="translate(28.8743 96.7122) rotate(36.8503) scale(6.14822)">
<stop stop-color="#6D00C2"/>
<stop offset="0.3995" stop-color="#6600BC"/>
<stop offset="0.976" stop-color="#5300AC"/>
<stop offset="1" stop-color="#5200AB"/>
</radialGradient>
<radialGradient id="paint12_radial_1_2054" cx="0" cy="0" r="1" gradientUnits="userSpaceOnUse" gradientTransform="translate(129.881 127.74) rotate(36.8503) scale(6.4218 6.42181)">
<stop stop-color="#1F0081"/>
<stop offset="0.73" stop-color="#260087"/>
<stop offset="1" stop-color="#2A008B"/>
</radialGradient>
</defs>
</svg>
