<svg width="166" height="164" viewBox="0 0 166 164" fill="none" xmlns="http://www.w3.org/2000/svg">
<g opacity="0.65" filter="url(#filter0_d_1_1924)">
<path fill-rule="evenodd" clip-rule="evenodd" d="M51.1707 41.3646C51.1707 41.3646 53.3133 37.0234 54.5392 34.7035C54.5392 34.7035 59.1564 31.4389 65.299 29.6297L71.6986 32.2944C71.6986 32.2944 54.7214 38.2336 51.1707 41.3646Z" fill="url(#paint0_linear_1_1924)"/>
<path fill-rule="evenodd" clip-rule="evenodd" d="M65.3018 29.6299C65.3018 29.6299 64.0228 33.2564 59.6453 34.9745C55.2677 36.6926 54.1688 35.1837 54.1688 35.1837L51.3066 40.6982L71.6107 32.2627L65.3018 29.6299Z" fill="url(#paint1_linear_1_1924)"/>
<path fill-rule="evenodd" clip-rule="evenodd" d="M122.255 92.4274C120.817 96.5071 118.834 100.395 116.435 103.728C111.574 110.576 104.946 115.783 97.4711 119.058C92.1712 121.369 86.3111 122.666 80.3494 122.806C74.9956 122.957 69.4763 122.131 64.1273 120.245C63.402 119.989 62.5861 119.701 61.8928 119.355C60.8368 118.881 59.6902 118.374 58.6343 117.9C50.7679 113.903 44.3674 107.772 40.1157 100.462C38.5206 97.7587 37.2028 94.8475 36.1302 91.8189C35.4098 89.5261 34.78 87.2653 34.3955 84.8871C34.2834 84.3378 34.2032 83.698 34.0911 83.1487C34.0911 83.1487 34.0911 83.1487 34.1231 83.0581C34.043 82.4182 33.9308 81.869 33.9413 81.2611C33.7916 79.3734 33.7644 77.427 33.828 75.5127C33.913 74.1155 33.998 72.7184 34.1736 71.3532C34.312 70.3827 34.4504 69.4121 34.7115 68.3829C35.1429 66.2925 35.665 64.234 36.4004 62.1488C36.816 60.9702 37.2317 59.7917 37.8286 58.677C38.1751 57.9837 38.5215 57.2904 38.868 56.5971C40.9147 52.5279 43.5001 48.9545 46.5335 45.8449C47.9889 44.3195 49.6257 42.858 51.2891 41.6098C54.0935 39.4388 57.1059 37.545 60.385 36.0512C70.7449 31.2441 82.9827 30.3613 94.5872 34.4539C95.0405 34.6137 95.4938 34.7736 95.9471 34.9335C96.4004 35.0933 96.9444 35.2851 97.3657 35.5357C99.7496 36.5803 102.07 37.8062 104.235 39.1814C105.467 40.0237 106.699 40.8659 107.808 41.7669C108.619 42.3586 109.307 43.009 110.086 43.6913C110.624 44.1871 111.163 44.6829 111.702 45.1787C111.76 45.3013 111.851 45.3333 112 45.4879C115.467 48.9532 118.316 53.0159 120.429 57.4307C120.722 58.0438 121.016 58.657 121.277 59.3608C121.421 59.8194 121.688 60.2193 121.832 60.6778C122.184 61.4136 122.414 62.2081 122.675 62.9119C123.63 65.6953 124.249 68.564 124.655 71.4595C125.083 74.8722 125.174 78.3702 124.871 81.8311C124.296 85.196 123.534 88.801 122.255 92.4274Z" fill="url(#paint2_radial_1_1924)"/>
<path fill-rule="evenodd" clip-rule="evenodd" d="M111.757 45.3015C111.576 45.2375 111.485 45.2056 111.272 45.2323C110.787 45.1631 110.366 44.9126 109.944 44.662C109.614 44.4435 109.496 44.1982 109.043 44.0384C108.531 43.7559 108.142 43.4147 107.63 43.1322C107.118 42.8497 106.728 42.5085 106.248 42.1353C105.859 41.7941 105.646 41.8209 105.251 41.7836C104.856 41.7464 104.648 41.4691 104.318 41.2506C104.019 40.9414 103.566 40.7815 103.235 40.563C102.211 39.998 101.251 39.2516 100.259 38.596C99.6883 38.1909 99.0537 37.967 98.3284 37.7113C97.7845 37.5194 97.2672 37.5409 96.7233 37.349C96.3606 37.2211 96.1206 37.0346 95.758 36.9067C95.4273 36.6881 95.0327 36.6509 94.6701 36.523C94.1581 36.2405 93.9181 36.0539 93.3102 36.0434C92.8249 35.9742 92.5529 35.8783 92.0676 35.8091C91.6143 35.6492 91.0064 35.6387 90.5212 35.5695C89.6413 35.463 88.6707 35.3246 87.8548 35.0369C87.3108 34.845 86.6495 34.4079 86.1322 34.4294C85.8283 34.4241 85.5191 34.7228 85.1831 34.8082C84.57 35.1016 83.9888 35.3044 83.4663 35.6298C82.9438 35.9552 82.3893 36.3713 82.1655 37.0059C81.9736 37.5499 82.0218 38.2804 82.1339 38.8296C82.2141 39.4695 82.1448 39.9548 81.473 40.1256C80.6785 40.3551 79.7347 40.43 78.9135 40.4462C78.3056 40.4356 77.8203 40.3664 77.5856 39.8759C77.4362 39.7213 77.4415 39.4173 77.3241 39.1721C77.1747 39.0175 76.8708 39.0122 76.6575 39.0389C76.0496 39.0284 75.4417 39.0179 74.8657 38.9167C74.4711 38.8795 74.1352 38.9649 73.7726 38.837C73.3779 38.7997 73.2019 38.4319 72.7166 38.3626C72.1407 38.2615 71.4102 38.3096 70.8662 38.1178C70.4129 37.9579 69.9329 37.5848 69.6342 37.2756C69.4848 37.121 69.4581 36.9077 69.1542 36.9024C68.9729 36.8385 68.605 37.0145 68.4503 37.1639C68.2051 37.2812 68.1092 37.5532 67.8639 37.6706C67.5867 37.8786 67.432 38.028 67.1548 38.236C66.723 38.5934 66.2911 38.9508 65.8593 39.3081C65.582 39.5162 65.2408 39.9055 64.8729 40.0816C64.7183 40.2309 64.4144 40.2257 64.2011 40.2524C63.6519 40.3645 63.0707 40.5673 62.5214 40.6794C61.4817 41.0263 60.41 41.4638 59.3702 41.8107C58.5757 42.0401 57.5732 41.9924 56.7201 42.0992C56.2028 42.1207 55.6856 42.1422 55.1683 42.1636C54.955 42.1903 54.683 42.0944 54.5284 42.2437C54.2832 42.3611 54.1286 42.5105 53.942 42.7505C53.4195 43.0759 52.7743 43.46 52.3105 43.908C52.0013 44.2067 51.8147 44.4467 51.5055 44.7454C51.1643 45.1348 50.7325 45.4921 50.45 46.0041C49.7356 46.8735 49.3519 47.9614 48.5469 48.7988C48.1738 49.2788 47.6193 49.6949 47.1555 50.1429C46.3825 50.8897 45.9081 51.9456 45.4657 52.9109C45.1832 53.4229 45.0181 54.1802 44.9169 54.7561C44.7838 55.4227 44.56 56.0573 44.3362 56.6919C44.1124 57.3265 43.4033 57.892 42.8808 58.2174C42.3583 58.5428 41.6597 58.5003 41.0465 58.7937C40.556 59.0285 39.9748 59.2312 39.6016 59.7112C39.447 59.8606 39.4418 60.1646 39.3459 60.4365C39.0634 60.9485 38.7222 61.3379 38.5303 61.8818C38.2159 62.4845 37.9921 63.1191 37.7363 63.8444C37.6084 64.207 37.5125 64.479 37.3846 64.8416C37.2567 65.2043 37.2514 65.5082 37.2461 65.8122C37.1822 65.9935 37.0863 66.2655 37.0223 66.4468C36.9264 66.7188 37.0118 67.0547 36.9479 67.236C36.9054 67.9346 36.8042 68.5105 36.671 69.1771C36.5699 69.7531 36.65 70.3929 36.5488 70.9689C36.565 71.7901 36.3999 72.5473 36.2935 73.4272C36.1923 74.0032 35.9685 74.6378 35.8673 75.2137C35.7981 75.699 35.7289 76.1843 35.569 76.6376C35.3132 77.3628 34.9081 77.9335 34.6523 78.6588C34.2367 79.8374 34.2743 81.1758 34.1306 82.4503C34.0934 82.8449 34.0881 83.1489 34.0509 83.5435C33.1054 76.6861 33.8076 69.4924 36.2695 62.5116C39.275 53.9896 44.5045 46.9654 51.0995 41.85C53.9039 39.679 56.9163 37.7852 60.1635 36.382C70.5233 31.5749 82.7612 30.6921 94.3657 34.7847C95.2723 35.1044 96.2696 35.4561 97.1442 35.8665C102.797 37.7582 107.725 41.1271 111.757 45.3015Z" fill="url(#paint3_linear_1_1924)"/>
<path opacity="0.1" fill-rule="evenodd" clip-rule="evenodd" d="M74.9019 98.3578C74.9019 98.3578 76.8126 105.658 80.467 112.349C84.1214 119.04 83.6956 122.56 83.6956 122.56C83.6956 122.56 95.2297 121.939 105.909 114.492C116.556 107.136 74.9019 98.3578 74.9019 98.3578Z" fill="black"/>
<path opacity="0.4" fill-rule="evenodd" clip-rule="evenodd" d="M103.994 38.9952C101.829 37.62 99.5998 36.426 97.1253 35.3495C96.672 35.1896 96.16 34.9071 95.7067 34.7472C96.5121 35.6429 97.1577 36.9918 96.9553 38.1437C96.6785 40.0848 96.7376 41.9405 96.4021 43.759C96.1573 45.6094 95.2992 47.7533 93.9398 49.0067C93.1348 49.8441 92.2124 50.4363 91.1087 50.9644C90.3729 51.3166 89.701 51.4874 89.0826 52.0847C88.4642 52.6821 87.7871 53.1569 87.1099 53.6317C86.1236 54.4051 85.0466 55.1466 83.911 55.7654C83.5111 56.0321 83.1752 56.1175 82.7753 56.3843C82.3435 56.7416 82.0022 57.131 81.5117 57.3657C80.408 57.8939 79.0376 58.0222 77.9125 58.0332C76.3607 58.0975 74.9903 58.2258 73.4653 58.5035C71.3003 58.8613 69.3435 59.4963 67.2263 58.8516C66.501 58.5958 65.8077 58.2494 65.0505 58.0843C64.1119 57.8552 63.1681 57.9301 62.2882 57.8236C61.499 57.7492 60.6511 57.5521 59.8618 57.4776C58.5286 57.2113 57.3715 57.3129 56.097 57.1692C54.4279 56.9883 52.828 56.3221 51.1002 56.0186C49.5857 55.6884 48.3432 55.454 47.0205 54.5798C45.0365 53.2685 44.2096 51.8556 45.4942 49.6583C46.3097 48.213 46.6347 47.0024 46.2931 45.6587C43.2597 48.7683 40.6423 52.4324 38.6276 56.4109C39.465 57.2159 40.5796 57.8128 41.5449 58.2552C44.5901 59.7369 48.5468 59.5013 51.8316 59.4366C53.474 59.4042 55.3029 59.1318 56.9988 59.526C58.7853 59.9521 60.1719 60.645 62.0223 60.8899C68.3361 61.4856 74.7511 61.5054 81.0965 60.2774C83.72 59.7755 85.266 58.282 87.4467 57.0124C89.2915 55.8281 91.2803 55.1024 93.3011 54.2861C95.3219 53.4697 97.1295 52.6801 98.6755 51.1866C100.344 49.6344 101.928 47.7463 103.116 45.821C104.401 43.6237 104.534 41.2241 103.994 38.9952ZM101.676 44.7016C101.426 45.1229 101.143 45.6349 100.893 46.0562C100.114 47.1069 98.9734 48.0297 97.6936 48.19C97.1444 48.3021 96.4831 47.865 96.371 47.3157C96.2856 46.9798 96.4135 46.6172 96.5094 46.3452C96.6425 45.6786 96.7437 45.1027 96.9675 44.4681C97.4791 43.0175 97.9907 41.5669 98.3209 40.0524C98.2145 40.9323 98.7685 38.7832 100.23 38.6868C100.96 38.6387 101.771 39.2304 102.064 39.8436C102.384 40.67 102.214 41.7312 102.14 42.5204C102.033 43.4003 102.023 44.0082 101.676 44.7016Z" fill="url(#paint4_linear_1_1924)"/>
<path opacity="0.4" fill-rule="evenodd" clip-rule="evenodd" d="M71.2168 111.124C71.1262 111.092 70.9129 111.119 70.8222 111.087L71.6062 111.466C71.6382 111.375 71.4888 111.22 71.2168 111.124ZM71.2168 111.124C71.1262 111.092 70.9129 111.119 70.8222 111.087L71.6062 111.466C71.6382 111.375 71.4888 111.22 71.2168 111.124ZM124.663 81.5536C124.279 82.6415 123.501 83.6922 123.117 84.7801C122.573 86.3213 121.886 87.404 121.012 88.7266C120.388 89.628 119.588 90.1614 118.965 91.0628C118.218 92.0228 117.323 92.8282 116.427 93.6336C114.636 95.2445 112.722 96.914 111.469 99.0207C110.28 100.946 109.582 102.637 107.913 104.189C106.277 105.65 104.283 106.68 102.555 108.109C101.814 108.765 101.452 108.638 100.444 108.894C99.404 109.241 98.2683 109.859 97.2285 110.206C95.0264 110.959 93.0428 111.38 90.5792 111.429C89.0275 111.493 87.6303 111.408 86.1158 111.078C85.1453 110.94 84.3026 110.439 83.3321 110.3C81.7856 110.061 80.2978 109.944 78.6874 109.885C76.1651 109.811 73.6481 109.433 71.1258 109.359C69.334 109.237 67.6649 109.056 65.9371 108.753C64.8759 108.582 63.8681 108.839 62.9348 108.306C62.0015 107.773 61.1321 107.058 60.2628 106.344C59.1214 105.534 58.0655 105.059 56.7056 104.58C54.8924 103.94 52.6206 103.445 50.8446 102.411C48.8873 101.313 47.1166 99.9747 45.1593 98.8766C43.986 98.157 43.2712 97.2933 42.2525 96.4244C41.3565 95.4967 40.3005 95.0224 39.2498 94.2441C38.1991 93.4658 37.2124 92.5062 36.1297 91.8186C37.1116 94.8152 38.4295 97.7264 40.1152 100.462C44.3669 107.771 50.6767 113.87 58.6338 117.9C59.6897 118.374 60.7137 118.939 61.8923 119.355C64.532 119.674 67.1449 119.78 69.8485 119.918C74.3758 120.088 78.7749 118.887 83.2702 119.147C84.9713 119.237 86.4911 119.263 88.1068 119.018C89.3865 118.858 90.5064 119.151 91.6636 119.049C96.0468 118.76 100.136 116.125 103.138 113.106C104.438 111.73 105.803 110.172 107.701 109.415C108.437 109.062 109.29 108.956 109.967 108.481C110.735 108.038 111.354 107.441 112.153 106.907C113.476 106.048 114.739 105.067 115.971 104.176C116.125 104.027 116.248 103.968 116.403 103.819C118.833 100.395 120.784 96.5975 122.223 92.5178C123.534 88.8007 124.296 85.1957 124.663 81.5536ZM69.9424 110.981C70.1556 110.954 70.4009 110.837 70.6142 110.81C70.8275 110.783 71.0675 110.97 71.2168 111.124C71.6115 111.162 71.8834 111.258 72.0915 111.535C72.2408 111.689 72.4489 111.967 72.4756 112.18C72.5023 112.393 72.3797 112.452 72.1344 112.569C71.8891 112.687 71.7985 112.655 71.5265 112.559C71.0412 112.49 70.5559 112.42 70.0439 112.138C69.772 112.042 69.3506 111.791 69.2333 111.546C69.3612 111.184 69.6971 111.098 69.9424 110.981ZM70.7705 117.593C70.3706 117.86 69.9707 118.126 69.5442 118.18C69.0856 118.324 68.691 118.287 68.3231 118.463C67.2566 118.596 66.1582 118.82 65.1556 118.773C64.761 118.735 64.3077 118.576 63.9451 118.448C63.4598 118.378 62.9159 118.187 62.4626 118.027C61.9186 117.835 61.252 117.702 60.6761 117.601C60.1321 117.409 59.4655 117.276 58.9215 117.084C57.8923 116.823 57.1403 116.354 56.3616 115.671C55.6416 115.112 54.9855 114.371 54.4201 113.661C54.0041 113.107 53.7106 112.494 53.5078 111.913C53.1824 111.39 53.0703 110.841 52.9902 110.201C52.9635 109.988 52.9367 109.774 53.1233 109.534C53.1553 109.444 53.2779 109.385 53.2779 109.385C53.4912 109.358 53.7365 109.241 53.8272 109.273C54.1631 109.188 54.5257 109.315 54.9203 109.353C55.7682 109.55 56.5522 109.928 57.3362 110.307C57.7895 110.466 58.2108 110.717 58.6961 110.786C59.3627 110.919 60.0612 110.962 60.6691 110.972C62.2476 111.121 63.8261 111.27 65.3086 111.691C66.8231 112.021 68.5189 112.416 69.8736 113.199C70.3856 113.482 71.0469 113.919 71.4043 114.351C71.671 114.75 71.8151 115.209 71.8685 115.636C71.8847 116.457 71.4476 117.118 70.7705 117.593ZM83.5046 117.904C83.1367 118.08 82.7101 118.134 82.2515 118.278C81.6703 118.481 81.1531 118.502 80.6039 118.614C80.1453 118.758 79.628 118.78 79.2014 118.833C78.6842 118.855 78.2576 118.908 77.7084 119.02C77.1911 119.042 76.6739 119.063 76.1567 119.085C75.762 119.047 75.3355 119.101 75.0048 118.882C74.7648 118.696 74.4341 118.477 74.3167 118.232C74.082 117.741 74.3006 117.411 74.4552 117.261C74.5511 116.989 74.6203 116.504 74.8388 116.173C74.9934 116.024 75.2707 115.816 75.4253 115.667C76.0437 115.069 76.7475 114.808 77.4833 114.456C78.0965 114.162 78.7683 113.992 79.4989 113.943C80.3201 113.927 81.2587 114.156 82.0159 114.321C82.8638 114.518 84.3464 114.939 84.448 116.096C84.4961 116.827 84.1817 117.43 83.5046 117.904ZM71.7288 111.407C71.6382 111.375 71.4888 111.22 71.3395 111.066C71.2488 111.034 71.0355 111.06 70.9449 111.029L71.7288 111.407Z" fill="url(#paint5_linear_1_1924)"/>
<path opacity="0.4" fill-rule="evenodd" clip-rule="evenodd" d="M124.446 71.1822L124.382 71.3635C123.876 72.5101 123.135 73.1661 122.298 74.0942C121.615 74.8729 120.997 75.4703 120.256 76.1264C119.051 77.2305 118.241 78.3718 117.153 79.7212C115.447 81.668 114.221 83.9879 112.126 85.5935C110.276 87.0817 109.114 89.2203 107.504 90.8951C105.617 92.7779 103.351 93.7117 100.962 94.7041C99.8903 95.1416 98.8453 95.7924 97.8322 96.3526C96.7285 96.8808 95.8009 97.7769 94.5479 98.1504C92.0418 98.8976 89.3276 99.3675 86.7896 100.205C85.2913 100.696 84.0277 101.678 82.412 101.923C80.855 102.292 79.2126 102.324 77.6876 102.602C76.2532 102.911 74.8189 103.221 73.3578 103.317C71.7154 103.35 70.6008 102.753 69.0276 102.3C67.3637 101.815 65.4813 101.661 63.7482 101.661C62.3191 101.667 61.0713 101.737 59.8713 100.804C59.0606 100.212 58.5591 99.3216 57.7165 98.8205C55.7005 97.5999 53.1835 97.2219 51.0396 96.3638C49.3491 95.6657 47.6638 94.6636 46.0691 93.6935C44.5331 92.846 43.5889 91.1878 42.2075 90.1909C40.4049 88.9436 37.9785 88.5975 36.4211 87.2328C35.701 86.6731 35.1996 85.7827 34.7248 85.1055C34.5755 84.9509 34.5168 84.8283 34.3674 84.6737C34.2553 84.1245 34.1752 83.4846 34.0631 82.9354C34.4524 83.2766 34.8418 83.6177 35.1992 84.0496C37.2313 86.0914 40.3777 86.9972 42.847 88.3777C45.6469 89.9768 48.3829 91.7572 51.2468 93.175C52.4521 93.8039 53.6627 94.1289 54.9639 94.4859C56.7504 94.912 58.4729 95.5195 60.2914 95.855C63.3843 96.3342 66.7651 95.9975 69.629 97.4152C70.1409 97.6977 70.6796 98.1935 71.2236 98.3853C72.0395 98.6731 72.93 98.1716 73.7244 97.9421C75.1588 97.6325 76.3961 98.1708 77.8357 97.5572C79.1847 96.9117 80.587 96.6927 82.0801 96.5057C85.9194 96.0248 89.5077 94.2323 93.0641 92.5303C96.0073 91.1219 98.8918 89.5907 101.27 87.4732C103.647 85.3556 104.494 82.0866 106.542 79.7504C108.061 78.0437 109.335 76.4543 111.212 75.1794C112.134 74.5872 113.115 74.1177 114.038 73.5256C115.051 72.9655 115.733 72.1868 116.629 71.3813C117.556 70.4852 118.692 69.8664 119.561 68.8477C120.398 67.9196 120.627 66.9811 121.043 65.8025C121.458 64.6239 121.906 63.3547 122.353 62.0854C123.33 65.386 124.04 68.2867 124.446 71.1822Z" fill="url(#paint6_linear_1_1924)"/>
<path opacity="0.4" fill-rule="evenodd" clip-rule="evenodd" d="M121.067 59.0835C120.773 58.4704 120.512 57.7666 120.218 57.1534C118.106 52.7386 115.225 48.7666 111.79 45.2106C111.732 45.088 111.641 45.056 111.492 44.9014C110.953 44.4056 110.414 43.9098 109.875 43.414C109.097 42.7317 108.409 42.0813 107.598 41.4895C107.806 41.7668 108.105 42.076 108.195 42.108C108.643 42.5718 109.033 42.913 109.236 43.4942C109.438 44.0754 109.492 44.502 109.268 45.1366C109.076 45.6805 108.943 46.3471 108.842 46.9231C108.741 47.499 108.853 48.0482 108.752 48.6242C108.746 48.9281 108.65 49.2001 108.613 49.5947C108.539 50.3839 108.555 51.2051 108.48 51.9944C108.273 53.4502 107.164 54.2823 106.295 55.301C104.898 56.9491 103.773 58.6931 102.435 60.4638C101.439 61.8452 100.079 63.0986 98.4848 63.8616C96.9226 64.5338 95.1041 64.1983 93.6912 65.0252C92.4009 65.7934 90.9613 66.407 89.5002 66.5033C87.7939 66.717 85.9702 66.6855 84.2691 66.5952C83.0533 66.5742 81.8747 66.1585 80.6002 66.0148C79.0217 65.8659 77.4967 66.1436 76.0356 66.2399C74.3612 66.363 72.8362 66.6406 71.1618 66.7637C69.4875 66.8867 67.9304 67.255 66.288 67.2874C65.4668 67.3036 64.6776 67.2292 63.9791 67.1867C62.3367 67.2191 60.657 67.6461 59.0519 67.2838C58.4759 67.1827 57.9 67.0815 57.356 66.8896C56.9027 66.7298 56.5081 66.6925 56.1135 66.6553C54.5618 66.7197 53.2343 67.8825 51.6611 67.4296C50.2105 66.918 48.8826 66.3478 47.4587 66.0495C46.7015 65.8844 46.0988 65.5699 45.4322 65.4367C45.2509 65.3728 44.947 65.3675 44.7976 65.2129C44.6483 65.0583 44.4402 64.7811 44.2322 64.5038C43.7842 64.04 43.4587 63.5175 43.1333 62.995C42.4825 61.95 41.1441 61.9876 40.2427 61.364C40.0027 61.1774 39.5175 61.1082 39.3094 60.8309C38.8027 60.2445 38.2745 59.1408 37.8904 58.4956C37.3841 59.6422 36.8778 60.7889 36.4621 61.9674C35.7268 64.0526 35.2047 66.1111 34.7732 68.2015C34.5442 69.1401 34.4058 70.1107 34.2354 71.1719C34.0597 72.537 33.9428 74.0248 33.8897 75.3313C33.8262 77.2457 33.8534 79.192 34.0031 81.0797C35.1177 81.6767 36.2324 82.2736 37.4749 82.508C39.2934 82.8435 41.0212 83.147 42.7117 83.8452C44.3117 84.5113 45.5704 85.5669 47.0157 86.3824C48.6423 87.2619 50.3596 88.1733 52.1408 88.9034C53.7407 89.5696 55.3087 90.3264 56.7859 91.0513C57.9006 91.6483 59.1059 92.2772 60.2525 92.7835C63.3616 94.0839 66.7318 94.3551 69.9102 95.1702C71.5154 95.5324 73.1845 95.7133 74.8536 95.8942C75.8241 96.0326 76.8267 96.0804 77.8344 95.8242C79.1781 95.4826 80.2551 94.7411 81.4495 94.2449C82.8571 93.7219 84.2648 93.199 85.6405 92.7668C86.8029 92.3612 87.9972 91.865 89.2183 91.5821C90.1034 91.3846 91.1112 91.1284 92.0283 90.8402C93.7719 90.2319 95.3981 89.3783 97.0563 88.434C99.3596 87.1057 100.921 84.7004 102.387 82.567C103.789 80.615 104.887 78.6577 106.769 77.0788C107.633 76.3641 108.47 75.436 109.126 74.444C109.531 73.8733 109.909 73.0894 110.405 72.5507C111.21 71.7133 112.495 71.249 113.359 70.5343C114.068 69.9688 114.868 69.4354 115.459 68.6247C116.669 67.2167 117.698 65.7446 118.61 64.0274C119.239 62.8221 120.14 61.7127 120.95 60.5713C121.104 60.422 121.2 60.15 121.355 60.0007C121.387 59.91 121.243 59.4514 121.067 59.0835ZM54.7702 68.73C54.9248 68.5806 56.7805 68.5215 56.9938 68.4948C56.9938 68.4948 56.9938 68.4948 56.9031 68.4628L55.6554 68.5325C56.9618 68.5855 58.6314 70.4994 57.1865 71.417C56.7866 71.6837 55.9067 71.5773 55.4215 71.508C54.9362 71.4388 54.7281 71.1616 54.5841 70.703C54.44 70.2445 54.4505 69.6366 54.6103 69.1833C54.6423 69.0926 54.7382 68.8206 54.7702 68.73ZM37.9265 75.7356C36.7852 74.9253 36.1291 74.1843 35.7875 72.8406C35.4993 71.9234 35.3605 71.1609 35.467 70.281C35.6321 69.5238 35.5519 68.8839 35.989 68.2226C36.2715 67.7106 36.7673 67.1719 37.1992 66.8145C37.663 66.3665 38.3401 65.8917 38.4041 65.7104C39.7053 66.0673 40.9158 66.3923 42.0944 66.808C43.4543 67.2876 44.8409 67.9805 46.2008 68.4601C46.8355 68.6839 47.4701 68.9077 48.1367 69.0409C48.8033 69.174 49.4112 69.1845 50.0778 69.3177C51.2296 69.52 52.2589 69.7811 53.0963 70.5861C53.6936 71.2045 53.7366 72.239 53.8434 73.0922C53.8649 73.6094 53.9503 73.9454 53.7584 74.4893C53.5346 75.1239 53.3428 75.6679 53.0603 76.1799C52.9963 76.3612 52.8097 76.6012 52.7458 76.7825C51.1678 78.3667 48.5868 78.17 46.5178 78.2558C43.4143 78.3845 40.3906 77.4201 37.9265 75.7356ZM55.7664 86.7162C54.7109 87.975 52.1938 87.597 50.802 87.208C50.1673 86.9842 49.3834 86.6058 48.8766 86.0193C48.578 85.7101 48.4339 85.2516 48.2898 84.793C48.2044 84.4571 48.0922 83.9078 47.303 83.8334C47.7721 83.0814 48.2092 82.4201 48.8276 81.8227C49.2275 81.556 49.6861 81.4119 50.1766 81.1771C51.003 80.857 51.9202 80.5688 52.7734 80.4619C54.1758 80.243 55.2851 81.1439 56.1812 82.0715C56.8693 82.7219 57.2214 83.4577 57.1149 84.3376C57.0352 85.4308 56.4488 85.9375 55.7664 86.7162ZM71.8185 92.0715C71.0135 92.9089 70.2829 92.9571 69.1845 93.1813C67.9047 93.3416 66.2943 93.2833 65.1157 92.8677C64.4811 92.6439 63.9424 92.1481 63.4944 91.6843C63.1957 91.375 62.7743 91.1245 62.5983 90.7566C62.0701 89.6529 62.2724 88.5011 62.7525 88.8742C62.6456 88.021 62.7201 87.2318 62.8852 86.4746C63.0985 86.4478 63.2531 86.2985 63.317 86.1172C64.0581 85.4611 65.1298 85.0236 66.1963 84.89C67.9346 84.5856 69.9024 85.0758 71.2785 86.3766C71.9079 86.9043 72.2333 87.4268 72.4948 88.1307C72.6708 88.4986 72.8789 88.7758 73.0229 89.2344C73.0391 90.0556 72.3782 91.3515 71.8185 92.0715ZM76.6874 93.5848C76.3515 93.6702 75.7703 93.873 75.4983 93.777C75.2583 93.5905 74.9649 92.9773 75.0928 92.6147L74.9754 92.3694C75.5618 91.8627 76.1163 91.4466 76.7028 90.9399C77.1508 91.4037 77.7267 91.5049 77.8656 92.2674C78.0951 93.0619 77.2686 93.382 76.6874 93.5848ZM98.9981 69.3432C98.321 69.818 97.4625 70.2288 96.6413 70.245C95.6068 70.2879 94.2097 70.2029 94.6306 68.7204C94.9184 67.9044 95.2328 67.3018 95.8513 66.7044C96.7789 65.8083 97.3281 65.6962 98.6079 65.5359C98.9705 65.6638 99.3599 66.005 99.5999 66.1916C100.08 66.5648 100.432 67.3005 100.299 67.9671C100.166 68.6337 99.5206 69.0178 98.9981 69.3432ZM112.473 67.2657C111.508 68.5564 110.394 69.6924 109.311 70.7379C108.011 72.114 107.312 73.8045 106.252 75.3672C105.719 76.3005 104.791 77.1966 103.757 77.2395C103.239 77.261 102.909 77.0424 102.455 76.8826C102.002 76.7227 101.213 76.6482 101.085 77.0109C101.069 76.1897 101.026 75.1552 101.1 74.3659C101.207 73.4861 101.436 72.5475 101.665 71.6089C101.803 70.6384 102.123 69.7318 102.352 68.7932C102.549 67.9453 102.688 66.9747 102.975 66.1588C103.967 63.3483 106.845 60.3881 109.922 60.0461C110.866 59.9712 111.746 60.0776 112.62 60.488C113.554 61.021 114.092 61.5168 114.194 62.674C114.258 64.2257 113.347 65.943 112.473 67.2657Z" fill="url(#paint7_linear_1_1924)"/>
<path opacity="0.4" fill-rule="evenodd" clip-rule="evenodd" d="M98.8022 66.6347C98.6795 66.6933 98.4982 66.6294 98.3756 66.6881C98.1036 66.5922 97.9543 66.4376 97.741 66.4643L98.8022 66.6347Z" fill="url(#paint8_linear_1_1924)"/>
<path fill-rule="evenodd" clip-rule="evenodd" d="M79.0278 83.1063C77.5343 81.5603 82.4651 74.2269 84.9177 73.0532C87.3704 71.8794 90.7046 77.7444 90.0656 81.2906C89.4852 84.9595 82.5854 86.6036 79.0278 83.1063Z" fill="url(#paint9_linear_1_1924)"/>
<path opacity="0.4" fill-rule="evenodd" clip-rule="evenodd" d="M38.3138 65.6786C38.2232 65.6466 38.1325 65.6146 38.1325 65.6146C38.3458 65.5879 38.3458 65.5879 38.3138 65.6786Z" fill="url(#paint10_linear_1_1924)"/>
<path fill-rule="evenodd" clip-rule="evenodd" d="M102.398 38.0245L110.978 37.6865C110.978 37.6865 121.315 46.5306 125.317 59.4609L123.468 66.1483C123.468 66.1483 111.094 55.5663 102.398 38.0245Z" fill="url(#paint11_linear_1_1924)"/>
<path fill-rule="evenodd" clip-rule="evenodd" d="M106.407 113.954C106.407 113.954 97.6305 118.606 92.4046 118.394L88.0906 118.197C88.0906 118.197 72.5006 105.462 75.4361 93.9588C77.9454 84.2424 99.0759 75.4867 104.035 75.2988C108.994 75.111 113.72 77.8988 113.72 77.8988L106.407 113.954Z" fill="url(#paint12_linear_1_1924)"/>
<path fill-rule="evenodd" clip-rule="evenodd" d="M113.719 77.8984C110.327 75.377 91.4454 77.1786 81.088 92.384C78.9665 95.5093 82.6444 111.383 91.4073 118.041C94.2873 120.28 113.973 112.442 117.741 103.781C121.509 95.1205 118.701 81.694 113.719 77.8984Z" fill="url(#paint13_linear_1_1924)"/>
<path fill-rule="evenodd" clip-rule="evenodd" d="M81.4742 94.7626C90.5458 76.5552 110.068 76.4066 113.46 78.928C115.86 80.7938 118.442 86.1897 119.425 90.9194C118.794 85.1924 116.665 79.9564 113.844 77.8401C110.452 75.3186 91.5697 77.1202 81.2124 92.3257C80.5247 93.4083 80.4187 96.0213 81.0914 99.3166C80.7016 97.2423 80.9732 95.6052 81.4742 94.7626Z" fill="url(#paint14_linear_1_1924)"/>
<path opacity="0.3" fill-rule="evenodd" clip-rule="evenodd" d="M42.334 103.997C42.334 103.997 45.7208 106.822 48.819 106.998C48.819 106.998 53.1362 98.2245 51.7694 91.1167C50.4026 84.0088 41.3763 90.8152 41.3763 90.8152L38.0341 95.9565C38.0341 95.9565 39.923 101.006 42.334 103.997Z" fill="black"/>
<path fill-rule="evenodd" clip-rule="evenodd" d="M46.1995 103.729L48.8711 103.958C48.8711 103.958 51.8402 99.2967 51.8013 92.759C51.7462 85.4002 44.7694 77.4351 43.5321 76.8968C42.2949 76.3586 40.0025 78.8121 40.0025 78.8121L46.1995 103.729Z" fill="url(#paint15_linear_1_1924)"/>
<path fill-rule="evenodd" clip-rule="evenodd" d="M83.6954 122.56L77.6386 126.438C77.6386 126.438 69.2615 127.357 62.5842 123.168L58.5729 117.778L83.6954 122.56Z" fill="url(#paint16_linear_1_1924)"/>
<path fill-rule="evenodd" clip-rule="evenodd" d="M36.7856 82.1615C37.9423 80.3268 40.8159 77.6706 42.485 77.8515C44.1541 78.0324 49.0943 87.7257 49.2182 92.8662C49.3421 98.0066 46.677 102.673 46.2346 103.639C45.7923 104.604 38.4427 98.8518 35.3967 93.904C32.4413 88.9881 36.7856 82.1615 36.7856 82.1615Z" fill="url(#paint17_linear_1_1924)"/>
<path fill-rule="evenodd" clip-rule="evenodd" d="M49.2158 92.8664C49.0919 87.726 44.2104 78.1553 42.4826 77.8518C41.816 77.7186 40.9576 78.1294 40.1578 78.6629C40.6484 78.4281 41.0749 78.3747 41.4695 78.4119C43.1387 78.5928 48.6811 86.8675 48.805 92.008C48.9398 98.2737 46.3544 101.847 45.5336 103.596C45.8963 103.724 46.1683 103.82 46.2322 103.639C46.6746 102.674 49.3397 98.0069 49.2158 92.8664Z" fill="url(#paint18_linear_1_1924)"/>
<path fill-rule="evenodd" clip-rule="evenodd" d="M81.2987 81.9589C80.1039 80.7221 84.1018 74.5887 86.0959 73.5591C88.0581 72.6201 90.6508 77.4081 90.2036 80.4104C89.7564 83.4127 84.1683 84.8058 81.2987 81.9589Z" fill="url(#paint19_linear_1_1924)"/>
<path fill-rule="evenodd" clip-rule="evenodd" d="M110.978 37.6865C110.978 37.6865 109.742 42.3474 112.927 49.7908C116.113 57.2342 125.317 59.4609 125.317 59.4609L123.468 66.1483C123.468 66.1483 107.553 51.1572 102.398 38.0245L110.978 37.6865Z" fill="url(#paint20_linear_1_1924)"/>
<path fill-rule="evenodd" clip-rule="evenodd" d="M111.467 83.4239C111.222 83.5413 110.55 83.7121 110.908 84.1439C110.966 84.2665 111.089 84.2079 111.148 84.3305C111.238 84.3625 111.206 84.4531 111.297 84.4851C111.633 84.3997 111.862 83.4611 111.467 83.4239Z" fill="#0EDBFF"/>
<path fill-rule="evenodd" clip-rule="evenodd" d="M131.926 82.0754C131.681 82.1928 131.009 82.3636 131.366 82.7954C131.425 82.9181 131.548 82.8594 131.606 82.982C131.697 83.014 131.665 83.1046 131.756 83.1366C132.214 82.9925 132.321 82.1126 131.926 82.0754Z" fill="#0EDBFF"/>
<path fill-rule="evenodd" clip-rule="evenodd" d="M111.892 87.1407C112.105 87.114 112.196 87.146 112.377 87.2099C112.313 87.3912 112.367 87.8178 112.031 87.9032C111.817 87.9299 111.945 87.5673 111.887 87.4447L111.892 87.1407Z" fill="#0EDBFF"/>
<path fill-rule="evenodd" clip-rule="evenodd" d="M83.0229 79.1008C83.2629 79.2874 83.471 79.5646 83.711 79.7512C83.8336 79.6925 83.9243 79.7245 84.1056 79.7884C84.3189 79.7617 84.4735 79.6124 84.5374 79.4311C84.724 79.191 84.6973 78.9778 84.5799 78.7325C84.5213 78.6099 84.4945 78.3966 84.4358 78.2739C84.3772 78.1513 84.1052 78.0554 83.8919 78.0821C83.6786 78.1088 83.524 78.2581 83.3694 78.4075C83.2148 78.5568 82.9695 78.6742 82.9056 78.8555C82.8416 79.0369 82.959 79.2821 82.9857 79.4954L83.0229 79.1008Z" fill="#0EDBFF"/>
<path fill-rule="evenodd" clip-rule="evenodd" d="M35.4077 86.3645C35.6477 86.5511 35.8558 86.8283 36.0958 87.0149C36.2184 86.9562 36.309 86.9882 36.4904 87.0521C36.7037 87.0254 36.8583 86.8761 36.9222 86.6947C37.1088 86.4547 37.0821 86.2414 36.9647 85.9962C36.906 85.8735 36.8793 85.6602 36.8206 85.5376C36.7619 85.415 36.49 85.3191 36.2767 85.3458C36.0634 85.3725 35.9088 85.5218 35.7542 85.6712C35.5996 85.8205 35.3543 85.9379 35.2903 86.1192C35.2264 86.3005 35.3438 86.5458 35.3705 86.7591L35.4077 86.3645Z" fill="#0EDBFF"/>
<path fill-rule="evenodd" clip-rule="evenodd" d="M88.6006 89.0182C88.478 89.0769 88.3553 89.1356 88.2007 89.2849C88.2275 89.4982 88.2861 89.6209 88.4355 89.7755C88.5261 89.8074 88.6168 89.8394 88.7075 89.8714C88.8301 89.8127 88.7714 89.6901 88.8941 89.6314C89.0487 89.482 89.0806 89.3914 89.0539 89.1781C88.9952 89.0554 89.0272 88.9648 88.9365 88.9328C88.8459 88.9008 88.6646 88.8369 88.6326 88.9276L88.6006 89.0182Z" fill="#0EDBFF"/>
<path fill-rule="evenodd" clip-rule="evenodd" d="M87.6346 93.7748C87.6026 93.8655 87.1388 94.3135 87.4747 94.2281C87.688 94.2014 87.7839 93.9294 87.6346 93.7748C87.7252 93.8068 87.7252 93.8068 87.6346 93.7748Z" fill="#0EDBFF"/>
<path fill-rule="evenodd" clip-rule="evenodd" d="M98.9919 106.954C98.7146 107.162 98.6826 107.253 98.4961 107.493C98.5548 107.615 98.7361 107.679 98.8268 107.711C99.0081 107.775 99.04 107.685 99.072 107.594C99.104 107.503 99.2586 107.354 99.1999 107.231C99.1732 107.018 99.1145 106.895 98.9919 106.954Z" fill="#0EDBFF"/>
<path fill-rule="evenodd" clip-rule="evenodd" d="M91.3091 90.5854C91.3678 90.708 91.4265 90.8306 91.3625 91.012C91.1812 90.948 91.2132 90.8573 91.2771 90.676C91.3411 90.4947 91.3998 90.6173 91.5544 90.468C91.5544 90.468 91.5544 90.468 91.645 90.5L91.3091 90.5854Z" fill="#0EDBFF"/>
<path fill-rule="evenodd" clip-rule="evenodd" d="M109.192 83.2326C109.069 83.2913 108.946 83.35 108.824 83.4087C108.882 83.5313 108.728 83.6806 108.909 83.7446C109 83.7766 109.122 83.7179 109.277 83.5685C109.4 83.5098 109.432 83.4192 109.496 83.2379C109.528 83.1472 109.624 82.8752 109.469 83.0246L109.192 83.2326Z" fill="#0EDBFF"/>
<path fill-rule="evenodd" clip-rule="evenodd" d="M118.448 50.921C118.63 50.9849 118.752 50.9262 118.934 50.9902C118.934 50.9902 119.024 51.0222 119.115 51.0541C119.296 51.1181 119.296 51.1181 119.264 51.2087C119.323 51.3314 119.259 51.5127 119.227 51.6034C118.945 52.1153 118.507 51.0436 118.843 50.9582L118.448 50.921Z" fill="#0EDBFF"/>
<path fill-rule="evenodd" clip-rule="evenodd" d="M60.4345 31.583C60.1305 31.5778 59.7679 31.4499 59.6719 31.7219C59.576 31.9938 59.8747 32.3031 60.0241 32.4577C60.3547 32.6762 60.8667 32.9587 61.2079 32.5693C61.3945 32.3293 61.4637 31.8441 61.437 31.6308C61.3249 31.0816 60.6263 31.0391 60.1091 31.0605L60.4345 31.583Z" fill="#0EDBFF"/>
<path fill-rule="evenodd" clip-rule="evenodd" d="M102.064 108.649C102.261 107.801 102.368 106.921 103.253 106.724C103.712 106.58 104.437 106.836 104.794 107.267C105.002 107.545 105.146 108.003 105.141 108.307C105.253 108.856 105.163 108.824 104.944 109.155C104.352 109.966 103.889 110.414 103.073 110.126C101.894 109.71 102.032 108.74 102.416 107.652L102.064 108.649Z" fill="#0EDBFF"/>
<path fill-rule="evenodd" clip-rule="evenodd" d="M110.76 85.7222C111.154 85.7594 111.49 85.674 111.768 85.466C111.56 85.1888 111.202 84.7569 110.952 85.1782L110.76 85.7222Z" fill="#0EDBFF"/>
<path fill-rule="evenodd" clip-rule="evenodd" d="M38.3711 83.74C38.7657 83.7773 39.1016 83.6919 39.3788 83.4838C39.1708 83.2066 38.8134 82.7747 38.5629 83.1961L38.3711 83.74Z" fill="#0EDBFF"/>
<path fill-rule="evenodd" clip-rule="evenodd" d="M35.9394 90.6304C36.334 90.6676 36.67 90.5822 36.9472 90.3742C36.7392 90.097 36.3818 89.6651 36.1313 90.0864L35.9394 90.6304Z" fill="#0EDBFF"/>
<path fill-rule="evenodd" clip-rule="evenodd" d="M93.2314 83.1087C93.7219 82.8739 94.431 82.3085 94.8471 82.863C95.1138 83.2629 95.0126 83.8388 94.554 83.9829C94.2181 84.0683 93.9141 84.063 93.5195 84.0258C93.2156 84.0205 92.9169 83.7113 93.1355 83.3806L93.2314 83.1087Z" fill="#0EDBFF"/>
<path fill-rule="evenodd" clip-rule="evenodd" d="M97.7529 104.682C98.2434 104.448 98.9525 103.882 99.3685 104.437C99.6353 104.837 99.5341 105.413 99.0755 105.557C98.7396 105.642 98.4356 105.637 98.041 105.6C97.7371 105.594 97.4384 105.285 97.6569 104.954L97.7529 104.682Z" fill="#0EDBFF"/>
<path fill-rule="evenodd" clip-rule="evenodd" d="M116.905 45.1781C117.326 45.4286 118.233 45.7483 117.886 46.4416C117.758 46.8043 117.054 47.0657 116.756 46.7565C116.457 46.4473 116.34 46.202 116.164 45.8341C116.046 45.5889 116.115 45.1036 116.601 45.1728L116.905 45.1781Z" fill="#0EDBFF"/>
<path fill-rule="evenodd" clip-rule="evenodd" d="M92.6786 108.091C93.1692 107.856 93.8783 107.291 94.2943 107.845C94.561 108.245 94.4599 108.821 94.0013 108.965C93.6654 109.051 93.3614 109.045 92.9668 109.008C92.6629 109.003 92.3642 108.694 92.5827 108.363L92.6786 108.091Z" fill="#0EDBFF"/>
<path fill-rule="evenodd" clip-rule="evenodd" d="M86.1123 79.8841C85.6537 80.0282 84.8325 80.0444 84.518 80.647C84.3901 81.0097 84.4168 81.223 84.7155 81.5322C84.9555 81.7188 85.3182 81.8467 85.6221 81.8519C86.0487 81.7985 86.6299 81.5957 86.9391 81.297C87.1257 81.057 87.1897 80.8757 87.1949 80.5717C87.1682 80.3584 87.1415 80.1452 86.9602 80.0812C86.4802 79.7081 86.0164 80.1561 85.5898 80.2095L86.1123 79.8841Z" fill="#0EDBFF"/>
<path fill-rule="evenodd" clip-rule="evenodd" d="M87.9832 78.9132C88.1325 79.0678 88.3726 79.2544 88.3993 79.4677C88.186 79.4944 87.85 79.5798 87.61 79.3932C87.37 79.2066 87.3753 78.9027 87.5619 78.6627C87.6258 78.4813 87.9937 78.3053 88.1431 78.4599C88.2337 78.4919 88.1698 78.6732 88.1698 78.6732C88.1965 78.8865 88.2285 78.7958 88.0739 78.9452L87.9832 78.9132Z" fill="#0EDBFF"/>
<path fill-rule="evenodd" clip-rule="evenodd" d="M100.089 80.4298C98.6817 80.9527 97.2688 81.7796 96.2452 82.9477C95.7175 83.5771 96.1708 83.7369 96.8374 83.8701C98.1119 84.0137 99.477 84.1894 100.784 84.2424C101.573 84.3169 102.698 84.3059 103.375 83.8312C103.897 83.5058 104.367 82.7538 104.468 82.1778C104.665 81.3299 104.126 80.8341 103.497 80.3064C101.934 79.2456 98.9375 80.2275 97.7593 81.5449L100.089 80.4298Z" fill="#0EDBFF"/>
<path fill-rule="evenodd" clip-rule="evenodd" d="M91.9295 84.4842C92.2921 84.6121 92.5321 84.7986 92.8308 85.1079C92.7082 85.1665 92.6442 85.3479 92.6123 85.4385C92.4576 85.5879 92.2124 85.7052 92.0898 85.7639C91.7538 85.8493 91.2685 85.7801 91.0605 85.5029C90.2818 84.8205 92.0254 84.2122 92.2282 84.7934L91.9295 84.4842Z" fill="#0EDBFF"/>
<path fill-rule="evenodd" clip-rule="evenodd" d="M114.804 45.3548C115.012 45.632 115.311 45.9412 115.487 46.3091C115.631 46.7677 115.807 47.1356 115.86 47.5622C115.887 47.7755 115.999 48.3247 115.636 48.1968C115.242 48.1596 114.708 47.3598 114.442 46.96C114.026 46.4055 113.668 45.9736 113.497 45.3018C113.412 44.9658 113.3 44.4166 113.577 44.2086C113.854 44.0006 114.036 44.0645 114.308 44.1604C114.58 44.2563 114.729 44.411 114.937 44.6882C114.996 44.8108 115.348 45.5466 115.135 45.5733L114.804 45.3548Z" fill="#0EDBFF"/>
<path fill-rule="evenodd" clip-rule="evenodd" d="M106.706 81.0309C106.493 81.0576 105.181 81.3086 105.629 81.7724C105.837 82.0496 106.504 82.1828 106.808 82.1881C107.112 82.1933 107.448 82.1079 107.362 81.772C107.224 81.0095 106.28 81.0843 105.73 81.1965L106.706 81.0309Z" fill="#0EDBFF"/>
<path fill-rule="evenodd" clip-rule="evenodd" d="M37.513 87.6169C37.3799 88.2835 37.3054 89.0727 37.6895 89.7179C38.1642 90.395 38.8628 90.4375 39.6253 90.2986C40.1745 90.1865 40.6331 90.0424 41.1823 89.9303C41.5182 89.8449 41.6996 89.9089 41.8275 89.5462C41.9553 89.1836 41.7845 88.5117 41.6991 88.1758C41.5551 87.7173 41.139 87.1628 40.8403 86.8536C40.0616 86.1712 38.2112 85.9263 37.7955 87.1049L37.513 87.6169Z" fill="#0EDBFF"/>
<path fill-rule="evenodd" clip-rule="evenodd" d="M97.0503 110.143C96.9811 110.629 96.88 111.205 97.1467 111.604C97.4721 112.127 97.9893 112.105 98.5385 111.993C98.8745 111.908 99.3011 111.855 99.637 111.769C99.8503 111.742 100.032 111.806 100.128 111.534C100.223 111.262 100.079 110.804 100.053 110.591C99.9672 110.255 99.7005 109.855 99.4605 109.668C98.9218 109.172 97.6473 109.029 97.3596 109.845L97.0503 110.143Z" fill="#0EDBFF"/>
<path fill-rule="evenodd" clip-rule="evenodd" d="M110.813 38.4438C110.813 38.4438 109.866 47.488 114.277 52.6114C119.851 59.0624 125.226 59.4291 125.226 59.4291C125.226 59.4291 119.035 57.0416 114.639 51.0063C111.017 45.9573 110.813 38.4438 110.813 38.4438Z" fill="url(#paint21_linear_1_1924)"/>
<path opacity="0.2" fill-rule="evenodd" clip-rule="evenodd" d="M74.9041 98.3581L80.5396 94.2294C80.5396 94.2294 80.5486 109.523 91.3756 118.132L88.0483 118.896C88.139 118.928 76.7255 110.825 74.9041 98.3581Z" fill="black"/>
<path opacity="0.3" fill-rule="evenodd" clip-rule="evenodd" d="M103.301 40.3818C103.301 40.3818 114.83 64.6313 124.89 77.1495C124.89 77.1495 125.348 71.8063 123.501 66.0583C123.469 66.1489 113.928 58.8084 103.301 40.3818Z" fill="black"/>
</g>
<defs>
<filter id="filter0_d_1_1924" x="0.646606" y="0.629639" width="164.523" height="162.894" filterUnits="userSpaceOnUse" color-interpolation-filters="sRGB">
<feFlood flood-opacity="0" result="BackgroundImageFix"/>
<feColorMatrix in="SourceAlpha" type="matrix" values="0 0 0 0 0 0 0 0 0 0 0 0 0 0 0 0 0 0 127 0" result="hardAlpha"/>
<feOffset dy="4"/>
<feGaussianBlur stdDeviation="16.5"/>
<feComposite in2="hardAlpha" operator="out"/>
<feColorMatrix type="matrix" values="0 0 0 0 0.560784 0 0 0 0 0.0823529 0 0 0 0 0.815686 0 0 0 0.5 0"/>
<feBlend mode="normal" in2="BackgroundImageFix" result="effect1_dropShadow_1_1924"/>
<feBlend mode="normal" in="SourceGraphic" in2="effect1_dropShadow_1_1924" result="shape"/>
</filter>
<linearGradient id="paint0_linear_1_1924" x1="58.8768" y1="44.1299" x2="64.1227" y2="29.2551" gradientUnits="userSpaceOnUse">
<stop stop-color="#9A00B3"/>
<stop offset="1" stop-color="#7F72FF"/>
</linearGradient>
<linearGradient id="paint1_linear_1_1924" x1="55.3217" y1="43.7226" x2="66.9286" y2="28.6305" gradientUnits="userSpaceOnUse">
<stop stop-color="#5B008B"/>
<stop offset="1" stop-color="#8E00FF"/>
</linearGradient>
<radialGradient id="paint2_radial_1_1924" cx="0" cy="0" r="1" gradientUnits="userSpaceOnUse" gradientTransform="translate(59.7676 47.7661) rotate(19.4263) scale(73.1586 73.1586)">
<stop offset="0.00558659" stop-color="#60DBFF"/>
<stop offset="0.0937306" stop-color="#60D5FF"/>
<stop offset="0.211" stop-color="#5FC4FF"/>
<stop offset="0.3446" stop-color="#5DA9FF"/>
<stop offset="0.4903" stop-color="#5A82FF"/>
<stop offset="0.6442" stop-color="#5751FF"/>
<stop offset="0.6844" stop-color="#5643FF"/>
<stop offset="0.7432" stop-color="#563DF8"/>
<stop offset="0.8282" stop-color="#552EE5"/>
<stop offset="0.9287" stop-color="#5315C6"/>
<stop offset="1" stop-color="#5200AB"/>
</radialGradient>
<linearGradient id="paint3_linear_1_1924" x1="40.4843" y1="50.3058" x2="102.269" y2="72.0954" gradientUnits="userSpaceOnUse">
<stop offset="0.0111732" stop-color="#81E0FF"/>
<stop offset="0.3224" stop-color="#82DDFF"/>
<stop offset="0.5506" stop-color="#86D4FF"/>
<stop offset="0.7523" stop-color="#8BC4FF"/>
<stop offset="0.9375" stop-color="#94ADFF"/>
<stop offset="1" stop-color="#97A4FF"/>
</linearGradient>
<linearGradient id="paint4_linear_1_1924" x1="45.1661" y1="38.2869" x2="99.1821" y2="57.3367" gradientUnits="userSpaceOnUse">
<stop stop-color="#B8C2FF"/>
<stop offset="1" stop-color="#7D72B3"/>
</linearGradient>
<linearGradient id="paint5_linear_1_1924" x1="39.7531" y1="81.5846" x2="116.497" y2="108.65" gradientUnits="userSpaceOnUse">
<stop stop-color="#B8C2FF"/>
<stop offset="1" stop-color="#7D72B3"/>
</linearGradient>
<linearGradient id="paint6_linear_1_1924" x1="40.8175" y1="64.1123" x2="117.407" y2="91.1233" gradientUnits="userSpaceOnUse">
<stop stop-color="#B8C2FF"/>
<stop offset="1" stop-color="#7D72B3"/>
</linearGradient>
<linearGradient id="paint7_linear_1_1924" x1="39.9677" y1="51.7785" x2="115.252" y2="78.3291" gradientUnits="userSpaceOnUse">
<stop stop-color="#B8C2FF"/>
<stop offset="1" stop-color="#7D72B3"/>
</linearGradient>
<linearGradient id="paint8_linear_1_1924" x1="97.6981" y1="66.395" x2="98.7315" y2="66.7595" gradientUnits="userSpaceOnUse">
<stop stop-color="#E8DDFF"/>
<stop offset="1" stop-color="#AA8AD8"/>
</linearGradient>
<linearGradient id="paint9_linear_1_1924" x1="81.355" y1="84.9547" x2="88.9859" y2="75.0325" gradientUnits="userSpaceOnUse">
<stop stop-color="#5B008B"/>
<stop offset="1" stop-color="#8E00FF"/>
</linearGradient>
<linearGradient id="paint10_linear_1_1924" x1="38.1145" y1="65.6191" x2="38.3291" y2="65.6948" gradientUnits="userSpaceOnUse">
<stop stop-color="#E8DDFF"/>
<stop offset="1" stop-color="#AA8AD8"/>
</linearGradient>
<linearGradient id="paint11_linear_1_1924" x1="99.6591" y1="45.7048" x2="127.225" y2="55.4264" gradientUnits="userSpaceOnUse">
<stop stop-color="#7F72FF"/>
<stop offset="1" stop-color="#9A00B3"/>
</linearGradient>
<linearGradient id="paint12_linear_1_1924" x1="82.5846" y1="114.086" x2="111.623" y2="76.3296" gradientUnits="userSpaceOnUse">
<stop stop-color="#280077"/>
<stop offset="1" stop-color="#812CFF"/>
</linearGradient>
<linearGradient id="paint13_linear_1_1924" x1="86.8935" y1="114.629" x2="114.593" y2="78.6137" gradientUnits="userSpaceOnUse">
<stop stop-color="#7A00B3"/>
<stop offset="1" stop-color="#B136FF"/>
</linearGradient>
<linearGradient id="paint14_linear_1_1924" x1="95.6102" y1="104.569" x2="106.012" y2="75.0737" gradientUnits="userSpaceOnUse">
<stop stop-color="#8E00B3"/>
<stop offset="1" stop-color="#E05CFF"/>
</linearGradient>
<linearGradient id="paint15_linear_1_1924" x1="39.184" y1="98.2732" x2="51.1788" y2="82.6768" gradientUnits="userSpaceOnUse">
<stop stop-color="#280077"/>
<stop offset="1" stop-color="#812CFF"/>
</linearGradient>
<linearGradient id="paint16_linear_1_1924" x1="69.1087" y1="126.015" x2="71.8026" y2="118.376" gradientUnits="userSpaceOnUse">
<stop stop-color="#7A00B3"/>
<stop offset="0.9162" stop-color="#7006FC"/>
<stop offset="1" stop-color="#7006F9"/>
</linearGradient>
<linearGradient id="paint17_linear_1_1924" x1="38.5399" y1="101.213" x2="46.283" y2="79.2574" gradientUnits="userSpaceOnUse">
<stop stop-color="#7A00B3"/>
<stop offset="1" stop-color="#B136FF"/>
</linearGradient>
<linearGradient id="paint18_linear_1_1924" x1="39.6912" y1="101.611" x2="47.4314" y2="79.6635" gradientUnits="userSpaceOnUse">
<stop stop-color="#8E00B3"/>
<stop offset="1" stop-color="#E05CFF"/>
</linearGradient>
<linearGradient id="paint19_linear_1_1924" x1="83.155" y1="83.4438" x2="89.4667" y2="75.2369" gradientUnits="userSpaceOnUse">
<stop stop-color="#A400CA"/>
<stop offset="1" stop-color="#B136FF"/>
</linearGradient>
<linearGradient id="paint20_linear_1_1924" x1="110.035" y1="55.8" x2="119.144" y2="43.9561" gradientUnits="userSpaceOnUse">
<stop stop-color="#5B008B"/>
<stop offset="1" stop-color="#8E00FF"/>
</linearGradient>
<linearGradient id="paint21_linear_1_1924" x1="115.483" y1="56.248" x2="120.547" y2="41.8877" gradientUnits="userSpaceOnUse">
<stop stop-color="#B000D9"/>
<stop offset="1" stop-color="#E05CFF"/>
</linearGradient>
</defs>
</svg>
